<?plantuml 1.2026.2?><svg xmlns="http://www.w3.org/2000/svg" xmlns:xlink="http://www.w3.org/1999/xlink" contentStyleType="text/css" data-diagram-type="DESCRIPTION" height="450px" preserveAspectRatio="none" style="width:343px;height:450px;background:#FFFFFF;" version="1.1" viewBox="0 0 343 450" width="343px" zoomAndPan="magnify"><defs/><g><!--entity src--><g class="entity" data-qualified-name="src" data-source-line="4" id="ent0002"><path d="M58.39,6 L286.1146,6 C291.1146,6 291.1146,27.4883 291.1146,27.4883 C291.1146,27.4883 291.1146,48.9766 286.1146,48.9766 L58.39,48.9766 C53.39,48.9766 53.39,27.4883 53.39,27.4883 C53.39,27.4883 53.39,6 58.39,6" fill="#F1F1F1" style="stroke:#181818;stroke-width:0.5;"/><path d="M286.1146,6 C281.1146,6 281.1146,27.4883 281.1146,27.4883 C281.1146,48.9766 286.1146,48.9766 286.1146,48.9766" fill="none" style="stroke:#181818;stroke-width:0.5;"/><text fill="#000000" font-family="sans-serif" font-size="14" lengthAdjust="spacing" textLength="109.5254" x="112.4896" y="24.5352">crypto.price.raw</text><text fill="#000000" font-family="sans-serif" font-size="14" lengthAdjust="spacing" textLength="217.7246" x="58.39" y="41.0234">CryptoPriceUpdatedEvent &#183; JSON</text></g><!--entity filter--><g class="entity" data-qualified-name="filter" data-source-line="5" id="ent0003"><rect fill="#F1F1F1" height="69.4648" rx="2.5" ry="2.5" style="stroke:#181818;stroke-width:0.5;" width="211.9053" x="66.3" y="108.98"/><text fill="#000000" font-family="sans-serif" font-size="14" font-weight="bold" lengthAdjust="spacing" textLength="81.7852" x="131.3601" y="132.5152">Event Filter</text><text fill="#000000" font-family="sans-serif" font-size="14" lengthAdjust="spacing" textLength="169.8525" x="87.3264" y="149.0034">Drop ticks with price &#8804; 0</text><text fill="#000000" font-family="sans-serif" font-size="14" lengthAdjust="spacing" textLength="191.9053" x="76.3" y="165.4917">or stale / future timestamps</text></g><!--entity translator--><g class="entity" data-qualified-name="translator" data-source-line="6" id="ent0004"><rect fill="#F1F1F1" height="102.4414" rx="2.5" ry="2.5" style="stroke:#181818;stroke-width:0.5;" width="330.5088" x="7" y="238.44"/><text fill="#000000" font-family="sans-serif" font-size="14" font-weight="bold" lengthAdjust="spacing" textLength="119.5264" x="112.4912" y="261.9752">Event Translator</text><text fill="#000000" font-family="sans-serif" font-size="14" lengthAdjust="spacing" textLength="310.5088" x="17" y="278.4634">Canonicalize symbol (BTCUSDT &#8594; BTC-USDT)</text><text fill="#000000" font-family="sans-serif" font-size="14" lengthAdjust="spacing" textLength="160.3984" x="92.0552" y="294.9517">Round price to tick size</text><text fill="#000000" font-family="sans-serif" font-size="14" lengthAdjust="spacing" textLength="119.5195" x="112.4946" y="311.44">Tag source venue</text><text fill="#000000" font-family="sans-serif" font-size="14" lengthAdjust="spacing" textLength="130.71" x="106.8994" y="327.9283">Stamp processedAt</text></g><!--entity sink--><g class="entity" data-qualified-name="sink" data-source-line="7" id="ent0005"><path d="M95.65,400.88 L248.8629,400.88 C253.8629,400.88 253.8629,422.3683 253.8629,422.3683 C253.8629,422.3683 253.8629,443.8566 248.8629,443.8566 L95.65,443.8566 C90.65,443.8566 90.65,422.3683 90.65,422.3683 C90.65,422.3683 90.65,400.88 95.65,400.88" fill="#F1F1F1" style="stroke:#181818;stroke-width:0.5;"/><path d="M248.8629,400.88 C243.8629,400.88 243.8629,422.3683 243.8629,422.3683 C243.8629,443.8566 248.8629,443.8566 248.8629,443.8566" fill="none" style="stroke:#181818;stroke-width:0.5;"/><text fill="#000000" font-family="sans-serif" font-size="14" lengthAdjust="spacing" textLength="120.7158" x="106.8985" y="419.4152">crypto.price.clean</text><text fill="#000000" font-family="sans-serif" font-size="14" lengthAdjust="spacing" textLength="143.2129" x="95.65" y="435.9034">CleanPriceTick &#183; Avro</text></g><!--link src to filter--><g class="link" data-entity-1="ent0002" data-entity-2="ent0003" data-link-type="dependency" data-source-line="9" id="lnk6"><path d="M172.25,49.44 C172.25,66.05 172.25,83.61 172.25,102.89" fill="none" id="src-to-filter" style="stroke:#181818;stroke-width:1;"/><polygon fill="#181818" points="172.25,108.89,176.25,99.89,172.25,103.89,168.25,99.89,172.25,108.89" style="stroke:#181818;stroke-width:1;"/></g><!--link filter to translator--><g class="link" data-entity-1="ent0003" data-entity-2="ent0004" data-link-type="dependency" data-source-line="10" id="lnk7"><path d="M172.25,178.82 C172.25,196.53 172.25,212.52 172.25,232.16" fill="none" id="filter-to-translator" style="stroke:#181818;stroke-width:1;"/><polygon fill="#181818" points="172.25,238.16,176.25,229.16,172.25,233.16,168.25,229.16,172.25,238.16" style="stroke:#181818;stroke-width:1;"/></g><!--link translator to sink--><g class="link" data-entity-1="ent0004" data-entity-2="ent0005" data-link-type="dependency" data-source-line="11" id="lnk8"><path d="M172.25,341.2 C172.25,361.89 172.25,378.67 172.25,394.64" fill="none" id="translator-to-sink" style="stroke:#181818;stroke-width:1;"/><polygon fill="#181818" points="172.25,400.64,176.25,391.64,172.25,395.64,168.25,391.64,172.25,400.64" style="stroke:#181818;stroke-width:1;"/></g><?plantuml-src RL11KW8n4BplAwOuwG7m0HHL27hme9OijxqCsTabHNQoPX8G7s2LLz_W7xpx55vYDY1wu999UgQdEorhpIqwR41MMDgjvXegD4APd3ebLHYCp-d5JuokkI7seE91BikU0mM2ddAxrjj1wxIYWSDjmTE4F7R0eYtHKtcpwOZVNt0tVxZl0Gg8KvaZvP5h4vUCbkF3pAqsSVbek1mNF7Es1Q_LMc2h_GgI1EpVF-6gOEj0F4Rk4AhWWwCusL24cbQIGfKsdHN97R8OzFOeD4Msh1KQ_KeWksPf3LnSvzF5V9R3_kq3uhtVFIuBVhA1owCLRvCzaCWhECSQn0ON6r4bH6JUkOcpLf48bHEVZFcJ-ja8bI7awAahASEyauZPJJRE7hBJlCwoc23q--FVVnvAGlu9_5rJfsF-0000?></g></svg>