<?xml version="1.0" encoding="us-ascii" standalone="no"?>
<svg xmlns="http://www.w3.org/2000/svg" contentStyleType="text/css" height="650px" preserveAspectRatio="none" style="width:1200px;height:650px;" version="1.1" viewBox="0 0 1200 650" width="1200px" zoomAndPan="magnify">
  <defs>
    <marker id="arrow" markerHeight="8" markerWidth="8" orient="auto" refX="7" refY="4">
      <path d="M0,0 L8,4 L0,8 z" fill="#181818"/>
    </marker>
    <marker id="arrow-muted" markerHeight="8" markerWidth="8" orient="auto" refX="7" refY="4">
      <path d="M0,0 L8,4 L0,8 z" fill="#546E7A"/>
    </marker>
    <style>
      text { fill: #000000; font-family: "Segoe UI", Arial, sans-serif; font-size: 14px; }
      .label { font-weight: 700; }
      .small { font-size: 12px; fill: #37474F; }
      .box { stroke: #181818; stroke-width: .5; rx: 2.5; ry: 2.5; }
      .cluster { stroke: #78909C; stroke-width: 1; rx: 2.5; ry: 2.5; }
      .line { fill: none; stroke: #181818; stroke-width: 1; marker-end: url(#arrow); }
      .dash { fill: none; stroke: #546E7A; stroke-width: 1; stroke-dasharray: 7 7; marker-end: url(#arrow-muted); }
      .dash-plain { fill: none; stroke: #546E7A; stroke-width: 1; stroke-dasharray: 7 7; }
      .plain { fill: none; stroke: #181818; stroke-width: 1; }
      .bus { fill: none; stroke: #181818; stroke-width: 1.2; }
    </style>
  </defs>

  <g id="cluster_docker">
    <rect class="cluster" fill="#F5F5F5" height="510" width="1110" x="45" y="118"/>
    <text class="label" text-anchor="middle" x="600" y="139">Docker Compose</text>
  </g>

  <g id="cluster_services">
    <rect class="cluster" fill="#E8EAF6" height="242" width="1030" x="85" y="170"/>
    <text class="label" text-anchor="middle" x="600" y="191">Microservices</text>
  </g>

  <g id="external_apis">
    <path d="M98,38 C104,26 114,27 121,36 C128,24 141,25 148,36 C157,24 169,26 176,38 C190,42 190,58 177,63 C171,75 158,73 150,63 C142,75 128,74 121,63 C113,72 98,70 93,59 C82,52 85,40 98,38" fill="#FFF3E0" stroke="#181818" stroke-width=".5"/>
    <text text-anchor="middle" x="136" y="55">Binance API</text>

    <path d="M712,38 C718,26 728,27 735,36 C742,24 755,25 762,36 C771,24 783,26 790,38 C804,42 804,58 791,63 C785,75 772,73 764,63 C756,75 742,74 735,63 C727,72 712,70 707,59 C696,52 699,40 712,38" fill="#E0F2F1" stroke="#181818" stroke-width=".5"/>
    <text text-anchor="middle" x="750" y="55">CoinGecko API</text>

    <path d="M858,38 C864,26 874,27 881,36 C888,24 901,25 908,36 C917,24 929,26 936,38 C950,42 950,58 937,63 C931,75 918,73 910,63 C902,75 888,74 881,63 C873,72 858,70 853,59 C842,52 845,40 858,38" fill="#E0F2F1" stroke="#181818" stroke-width=".5"/>
    <text text-anchor="middle" x="896" y="55">Frankfurter API</text>

    <path d="M1000,286 C1008,272 1020,273 1028,284 C1036,267 1050,269 1058,284 C1069,269 1084,271 1092,286 C1110,291 1111,311 1094,319 C1087,334 1070,332 1060,320 C1051,336 1034,334 1027,320 C1016,332 1000,329 993,315 C979,307 984,290 1000,286" fill="#E3F2FD" stroke="#181818" stroke-width=".5"/>
    <text text-anchor="middle" x="1046" y="306">Camunda 8 SaaS</text>
  </g>

  <g id="end_user">
    <ellipse cx="396" cy="30" fill="#F1F1F1" rx="8" ry="8" stroke="#181818" stroke-width=".5"/>
    <path d="M396,38 L396,65 M383,46 L409,46 M396,65 L383,80 M396,65 L409,80" fill="none" stroke="#181818" stroke-width=".5"/>
    <text text-anchor="middle" x="396" y="99">End User</text>
  </g>

  <g id="services">
    <g id="elem_MDS"><rect class="box" fill="#FFF8E1" height="50" width="122" x="100" y="218"/><rect fill="#FFF8E1" height="10" stroke="#181818" stroke-width=".5" width="15" x="200" y="223"/><rect fill="#FFF8E1" height="2" stroke="#181818" stroke-width=".5" width="4" x="198" y="225"/><rect fill="#FFF8E1" height="2" stroke="#181818" stroke-width=".5" width="4" x="198" y="229"/><text text-anchor="middle" x="161" y="249">Market Data</text></g>
    <g id="elem_MPB"><rect class="box" fill="#FFF8E1" height="50" width="134" x="250" y="218"/><rect fill="#FFF8E1" height="10" stroke="#181818" stroke-width=".5" width="15" x="362" y="223"/><rect fill="#FFF8E1" height="2" stroke="#181818" stroke-width=".5" width="4" x="360" y="225"/><rect fill="#FFF8E1" height="2" stroke="#181818" stroke-width=".5" width="4" x="360" y="229"/><text text-anchor="middle" x="317" y="240">Partial Book</text><text text-anchor="middle" x="317" y="256">Ingestion</text></g>
    <g id="elem_MOS"><rect class="box" fill="#FFF8E1" height="50" width="132" x="414" y="218"/><rect fill="#FFF8E1" height="10" stroke="#181818" stroke-width=".5" width="15" x="524" y="223"/><rect fill="#FFF8E1" height="2" stroke="#181818" stroke-width=".5" width="4" x="522" y="225"/><rect fill="#FFF8E1" height="2" stroke="#181818" stroke-width=".5" width="4" x="522" y="229"/><text text-anchor="middle" x="480" y="240">Market Order</text><text text-anchor="middle" x="480" y="256">Scout</text></g>
    <g id="elem_CMS"><rect class="box" fill="#E0F2F1" height="50" width="132" x="684" y="218"/><rect fill="#E0F2F1" height="10" stroke="#181818" stroke-width=".5" width="15" x="794" y="223"/><rect fill="#E0F2F1" height="2" stroke="#181818" stroke-width=".5" width="4" x="792" y="225"/><rect fill="#E0F2F1" height="2" stroke="#181818" stroke-width=".5" width="4" x="792" y="229"/><text text-anchor="middle" x="750" y="249">Coin Metadata</text></g>
    <g id="elem_FXS"><rect class="box" fill="#E0F2F1" height="50" width="104" x="844" y="218"/><rect fill="#E0F2F1" height="10" stroke="#181818" stroke-width=".5" width="15" x="926" y="223"/><rect fill="#E0F2F1" height="2" stroke="#181818" stroke-width=".5" width="4" x="924" y="225"/><rect fill="#E0F2F1" height="2" stroke="#181818" stroke-width=".5" width="4" x="924" y="229"/><text text-anchor="middle" x="896" y="249">FX Rate</text></g>
    <g id="elem_PS"><rect class="box" fill="#E8F5E9" height="50" width="104" x="344" y="322"/><rect fill="#E8F5E9" height="10" stroke="#181818" stroke-width=".5" width="15" x="426" y="327"/><rect fill="#E8F5E9" height="2" stroke="#181818" stroke-width=".5" width="4" x="424" y="329"/><rect fill="#E8F5E9" height="2" stroke="#181818" stroke-width=".5" width="4" x="424" y="333"/><text text-anchor="middle" x="396" y="353">Portfolio</text></g>
    <g id="elem_TS"><rect class="box" fill="#E3F2FD" height="50" width="124" x="484" y="322"/><rect fill="#E3F2FD" height="10" stroke="#181818" stroke-width=".5" width="15" x="586" y="327"/><rect fill="#E3F2FD" height="2" stroke="#181818" stroke-width=".5" width="4" x="584" y="329"/><rect fill="#E3F2FD" height="2" stroke="#181818" stroke-width=".5" width="4" x="584" y="333"/><text text-anchor="middle" x="546" y="353">Transaction</text></g>
    <g id="elem_US"><rect class="box" fill="#FCE4EC" height="50" width="86" x="648" y="322"/><rect fill="#FCE4EC" height="10" stroke="#181818" stroke-width=".5" width="15" x="712" y="327"/><rect fill="#FCE4EC" height="2" stroke="#181818" stroke-width=".5" width="4" x="710" y="329"/><rect fill="#FCE4EC" height="2" stroke="#181818" stroke-width=".5" width="4" x="710" y="333"/><text text-anchor="middle" x="691" y="353">User</text></g>
    <g id="elem_OS"><rect class="box" fill="#EDE7F6" height="50" width="124" x="774" y="322"/><rect fill="#EDE7F6" height="10" stroke="#181818" stroke-width=".5" width="15" x="876" y="327"/><rect fill="#EDE7F6" height="2" stroke="#181818" stroke-width=".5" width="4" x="874" y="329"/><rect fill="#EDE7F6" height="2" stroke="#181818" stroke-width=".5" width="4" x="874" y="333"/><text text-anchor="middle" x="836" y="353">Onboarding</text></g>
  </g>

  <g id="infrastructure">
    <g id="elem_Kafka"><rect class="box" fill="#FFF3E0" height="50" width="132" x="116" y="526"/><rect fill="#FFF3E0" height="10" stroke="#181818" stroke-width=".5" width="15" x="226" y="531"/><rect fill="#FFF3E0" height="2" stroke="#181818" stroke-width=".5" width="4" x="224" y="533"/><rect fill="#FFF3E0" height="2" stroke="#181818" stroke-width=".5" width="4" x="224" y="537"/><text text-anchor="middle" x="182" y="557">Apache Kafka</text></g>
    <g id="elem_SR"><rect class="box" fill="#FFF3E0" height="50" width="132" x="284" y="526"/><rect fill="#FFF3E0" height="10" stroke="#181818" stroke-width=".5" width="15" x="394" y="531"/><rect fill="#FFF3E0" height="2" stroke="#181818" stroke-width=".5" width="4" x="392" y="533"/><rect fill="#FFF3E0" height="2" stroke="#181818" stroke-width=".5" width="4" x="392" y="537"/><text text-anchor="middle" x="350" y="557">Schema Registry</text></g>
    <g id="elem_KUI"><rect class="box" fill="#ECEFF1" height="28" width="268" x="132" y="598"/><rect fill="#ECEFF1" height="10" stroke="#181818" stroke-width=".5" width="15" x="378" y="603"/><rect fill="#ECEFF1" height="2" stroke="#181818" stroke-width=".5" width="4" x="376" y="605"/><rect fill="#ECEFF1" height="2" stroke="#181818" stroke-width=".5" width="4" x="376" y="609"/><text text-anchor="middle" x="266" y="617">Kafka UI</text></g>
    <g id="elem_PGA"><rect class="box" fill="#ECEFF1" height="28" width="260" x="480" y="598"/><rect fill="#ECEFF1" height="10" stroke="#181818" stroke-width=".5" width="15" x="718" y="603"/><rect fill="#ECEFF1" height="2" stroke="#181818" stroke-width=".5" width="4" x="716" y="605"/><rect fill="#ECEFF1" height="2" stroke="#181818" stroke-width=".5" width="4" x="716" y="609"/><text text-anchor="middle" x="610" y="617">pgAdmin</text></g>
    <g id="elem_PDB"><path d="M342,472 C342,462 396,462 396,462 C396,462 450,462 450,472 L450,504 C450,514 396,514 396,514 C396,514 342,514 342,504 Z" fill="#E8F5E9" stroke="#181818" stroke-width=".5"/><path d="M342,472 C342,482 396,482 396,482 C396,482 450,482 450,472" fill="none" stroke="#181818" stroke-width=".5"/><text text-anchor="middle" x="396" y="502">Portfolio DB</text></g>
    <g id="elem_TDB"><path d="M484,472 C484,462 546,462 546,462 C546,462 608,462 608,472 L608,504 C608,514 546,514 546,514 C546,514 484,514 484,504 Z" fill="#E3F2FD" stroke="#181818" stroke-width=".5"/><path d="M484,472 C484,482 546,482 546,482 C546,482 608,482 608,472" fill="none" stroke="#181818" stroke-width=".5"/><text text-anchor="middle" x="546" y="502">Transaction DB</text></g>
    <g id="elem_UDB"><path d="M650,472 C650,462 692,462 692,462 C692,462 734,462 734,472 L734,504 C734,514 692,514 692,514 C692,514 650,514 650,504 Z" fill="#FCE4EC" stroke="#181818" stroke-width=".5"/><path d="M650,472 C650,482 692,482 692,482 C692,482 734,482 734,472" fill="none" stroke="#181818" stroke-width=".5"/><text text-anchor="middle" x="692" y="502">User DB</text></g>
    <text class="small" text-anchor="middle" x="610" y="528">PostgreSQL instance with service-owned databases</text>
  </g>

  <g id="links">
    <path class="bus" d="M136,72 L136,146 L317,146 L317,212"/>
    <path class="line" d="M161,146 L161,212"/>
    <path class="line" d="M317,146 L317,212"/>
    <text class="small" text-anchor="middle" x="226" y="139">market feeds</text>

    <path class="line" d="M750,72 L750,212"/>
    <path class="line" d="M896,72 L896,212"/>

    <path class="line" d="M396,104 L396,316"/>
    <path class="line" d="M396,292 L546,292 L546,316"/>
    <text class="small" text-anchor="middle" x="464" y="285">REST / UI calls</text>

    <path class="line" d="M384,243 L408,243"/>

    <path class="line" d="M182,412 L182,526"/>
    <path class="dash" d="M380,412 L380,438 L300,438 L300,526"/>
    <text class="small" text-anchor="middle" x="226" y="431">Kafka events</text>
    <text class="small" text-anchor="middle" x="340" y="455">schemas</text>

    <path class="dash" d="M182,598 L182,576"/>
    <path class="dash" d="M350,598 L350,576"/>
    <path class="dash" d="M546,514 L546,592"/>
    <path class="dash" d="M692,514 L692,592"/>
    <text class="small" text-anchor="middle" x="620" y="589">developer dashboards</text>

    <path class="plain" d="M396,372 L396,462"/>
    <path class="plain" d="M546,372 L546,462"/>
    <path class="plain" d="M692,372 L692,462"/>

    <path class="dash-plain" d="M448,322 L448,304 M608,322 L608,304 M734,322 L734,304 M898,347 L898,304 M448,304 L964,304"/>
    <path class="dash" d="M964,304 L984,304"/>
    <text class="small" text-anchor="middle" x="858" y="300">Camunda workers</text>
  </g>
</svg>
