<?plantuml 1.2026.2?><svg xmlns="http://www.w3.org/2000/svg" xmlns:xlink="http://www.w3.org/1999/xlink" contentStyleType="text/css" data-diagram-type="DESCRIPTION" height="473px" preserveAspectRatio="none" style="width:400px;height:473px;background:#FFFFFF;" version="1.1" viewBox="0 0 400 473" width="400px" zoomAndPan="magnify"><defs/><g><!--entity api--><g class="entity" data-qualified-name="api" data-source-line="4" id="ent0002"><path d="M85.0215,17.9494 C91.2445,9.755 96.3049,10.0099 101.7155,18.7503 C105.0167,11.3506 112.6242,10.5515 117.4525,17.0171 C123.0878,7.7871 129.6077,8.1355 135.0745,17.1796 C140.9974,9.3402 146.4726,7.8937 153.4282,15.9902 C157.4687,8.8807 163.1524,7.5681 167.9491,15.2478 C173.6809,6.3072 179.5226,6.3107 185.7987,14.6866 C191.5773,6 197.6612,6.4079 202.4671,15.5938 C208.2371,7.6025 214.1233,8.4938 218.8021,16.6947 C222.9208,9.1171 230.3933,7.218 235.7637,15.3426 C240.9781,6.8875 248.1716,6.7021 253.0383,15.687 C257.4815,8.3227 265.9316,7.0228 269.841,16.2283 C274.3695,9.6102 281.045,9.9798 285.0761,16.7926 C291.7659,8.545 299.0592,10.6289 303.8058,18.9847 C306.3162,11.3741 313.3996,10.3087 318.3797,16.3479 C332.143,20.116 337.697,31.1958 325.9109,42.3609 C334.9375,52.8983 329.8623,60.4116 318.1437,63.2267 C314.7837,71.3676 310.0335,72.3594 304.0667,65.7074 C299.4979,73.8396 293.631,75.5637 287.1808,67.6926 C281.8487,74.7849 275.3148,76.2932 270.3701,67.2879 C265.3033,77.1632 258.9675,75.7337 252.8973,68.3008 C247.1625,78.0447 240.9343,76.3624 235.0664,68.4351 C231.65,76.0923 225.7646,76.5883 220.3645,70.5672 C216.2354,79.8522 207.3879,79.5257 201.8623,72.1149 C196.4686,79.6978 189.5304,80.5975 184.7371,71.4985 C177.9154,78.4844 172.5679,78.6909 167.3045,69.7888 C161.8267,76.6862 156.6103,77.145 151.5022,69.3901 C146.1752,76.1354 140.2857,73.9197 136.7686,67.3826 C131.3025,75.5208 123.4634,75.187 119.4992,65.8947 C113.0777,75.2226 106.5337,75.7063 100.629,65.398 C97.265,72.9444 90.552,71.7231 86.5507,66.0782 C72.8296,60.9269 71.9664,51.7797 81.7729,41.9664 C70.6713,32.035 73.7507,24.8546 85.0215,17.9494" fill="#F1F1F1" style="stroke:#181818;stroke-width:0.5;"/><text fill="#000000" font-family="sans-serif" font-size="14" lengthAdjust="spacing" textLength="174.7402" x="113.3177" y="36.7094">exchangerate.host /latest</text><text fill="#000000" font-family="sans-serif" font-size="14" lengthAdjust="spacing" textLength="220.0557" x="90.66" y="53.1977">HTTPS JSON &#183; polled every 5 min</text></g><!--entity filter--><g class="entity" data-qualified-name="filter" data-source-line="5" id="ent0003"><rect fill="#F1F1F1" height="69.4648" rx="2.5" ry="2.5" style="stroke:#181818;stroke-width:0.5;" width="285.9316" x="57.72" y="131.1542"/><text fill="#000000" font-family="sans-serif" font-size="14" font-weight="bold" lengthAdjust="spacing" textLength="81.7852" x="159.7932" y="154.6894">Event Filter</text><text fill="#000000" font-family="sans-serif" font-size="14" lengthAdjust="spacing" textLength="192.8213" x="104.2752" y="171.1777">Reject malformed responses</text><text fill="#000000" font-family="sans-serif" font-size="14" lengthAdjust="spacing" textLength="265.9316" x="67.72" y="187.666">or responses past their validity window</text></g><!--entity translator--><g class="entity" data-qualified-name="translator" data-source-line="6" id="ent0004"><rect fill="#F1F1F1" height="85.9531" rx="2.5" ry="2.5" style="stroke:#181818;stroke-width:0.5;" width="387.3701" x="7" y="260.6142"/><text fill="#000000" font-family="sans-serif" font-size="14" font-weight="bold" lengthAdjust="spacing" textLength="119.5264" x="140.9219" y="284.1494">Event Translator</text><text fill="#000000" font-family="sans-serif" font-size="14" lengthAdjust="spacing" textLength="367.3701" x="17" y="300.6377">Fan out FxResponse &#8594; one FxRate per quote currency</text><text fill="#000000" font-family="sans-serif" font-size="14" lengthAdjust="spacing" textLength="228.4775" x="86.4463" y="317.126">Normalize currency codes &amp; units</text><text fill="#000000" font-family="sans-serif" font-size="14" lengthAdjust="spacing" textLength="185.5273" x="107.9214" y="333.6142">Set fetchedAt &#183; validFromAt</text></g><!--entity topic--><g class="entity" data-qualified-name="topic" data-source-line="7" id="ent0005"><path d="M91.98,406.5742 L309.3823,406.5742 C314.3823,406.5742 314.3823,436.3067 314.3823,436.3067 C314.3823,436.3067 314.3823,466.0391 309.3823,466.0391 L91.98,466.0391 C86.98,466.0391 86.98,436.3067 86.98,436.3067 C86.98,436.3067 86.98,406.5742 91.98,406.5742" fill="#F1F1F1" style="stroke:#181818;stroke-width:0.5;"/><path d="M309.3823,406.5742 C304.3823,406.5742 304.3823,436.3067 304.3823,436.3067 C304.3823,466.0391 309.3823,466.0391 309.3823,466.0391" fill="none" style="stroke:#181818;stroke-width:0.5;"/><text fill="#000000" font-family="sans-serif" font-size="14" lengthAdjust="spacing" textLength="112.752" x="139.3052" y="425.1094">reference.fx.rate</text><text fill="#000000" font-family="sans-serif" font-size="14" lengthAdjust="spacing" textLength="207.4023" x="91.98" y="441.5977">FxRate &#183; Avro &#183; log-compacted</text><text fill="#000000" font-family="sans-serif" font-size="14" lengthAdjust="spacing" textLength="132.3232" x="129.5196" y="458.086">key = currency pair</text></g><!--link api to filter--><g class="link" data-entity-1="ent0002" data-entity-2="ent0003" data-link-type="dependency" data-source-line="9" id="lnk6"><path d="M200.69,71.3742 C200.69,89.4742 200.69,106.4142 200.69,125.0342" fill="none" id="api-to-filter" style="stroke:#181818;stroke-width:1;"/><polygon fill="#181818" points="200.69,131.0342,204.69,122.0342,200.69,126.0342,196.69,122.0342,200.69,131.0342" style="stroke:#181818;stroke-width:1;"/></g><!--link filter to translator--><g class="link" data-entity-1="ent0003" data-entity-2="ent0004" data-link-type="dependency" data-source-line="10" id="lnk7"><path d="M200.69,200.7742 C200.69,218.7542 200.69,235.0242 200.69,254.1442" fill="none" id="filter-to-translator" style="stroke:#181818;stroke-width:1;"/><polygon fill="#181818" points="200.69,260.1442,204.69,251.1442,200.69,255.1442,196.69,251.1442,200.69,260.1442" style="stroke:#181818;stroke-width:1;"/></g><!--link translator to topic--><g class="link" data-entity-1="ent0004" data-entity-2="ent0005" data-link-type="dependency" data-source-line="11" id="lnk8"><path d="M200.69,347.0342 C200.69,366.4142 200.69,382.8742 200.69,400.2842" fill="none" id="translator-to-topic" style="stroke:#181818;stroke-width:1;"/><polygon fill="#181818" points="200.69,406.2842,204.69,397.2842,200.69,401.2842,196.69,397.2842,200.69,406.2842" style="stroke:#181818;stroke-width:1;"/></g><?plantuml-src RP0nTi8m38Rtd4AFeHimTQEynr1UNmVQ1ncp64SXBevaP8T23z03z3BTUvIUf4gWqA6B9SlM_tzIt3eAHam3iJOblphQG6Lyn2nUNagiJEjJZeSqysv33L82gmTAbbdFRGa3FDZQq0R591pL71EClQOn5VIGvyyhU5mzBU3h4m9xZoNW7kK8jz0u6e29O8BB16rI3OymcAodz_lEPkwysap6wsb1ItpH7z0ONx4qAY8O0rF4M13BzGR1g7-gqGdiZNUbIqVGoNIytglgDV-royLGL70-MyuD0RUASLYUrU7x_GEOi2lfW11GODUoPhOLGRB7WXQAfxvlrnfOBXNi1bfoIN5NcA32P6iiPwbRIyyv5svcgMTC5v1irsAhZ88LTbeugWwZRirATqBGzjbUk8kUDqFBJJ0sOLdG5ezmTuK8nib9dOEpMQPBX-5m-hkGK-WhV-olwUcbQ_q1?></g></svg>