<?xml version="1.0" encoding="us-ascii" standalone="no"?><svg xmlns="http://www.w3.org/2000/svg" xmlns:xlink="http://www.w3.org/1999/xlink" contentStyleType="text/css" height="656px" preserveAspectRatio="none" style="width:1248px;height:656px;" version="1.1" viewBox="0 0 1248 656" width="1248px" zoomAndPan="magnify"><defs/><g><!--cluster Platform--><g id="cluster_Platform"><rect fill="#F5F5F5" height="363.91" rx="2.5" ry="2.5" style="stroke:#78909C;stroke-width:1.0;" width="637" x="306.5" y="286.96"/><text fill="#000000" font-family="Segoe UI" font-size="14" font-weight="bold" lengthAdjust="spacing" textLength="150" x="550" y="302.4952">CryptoFlow platform</text></g><!--entity MD--><g id="elem_MD"><rect fill="#FFF8E1" height="46.4883" rx="2.5" ry="2.5" style="stroke:#78909C;stroke-width:0.5;" width="181" x="350" y="329.96"/><rect fill="#FFF8E1" height="10" style="stroke:#78909C;stroke-width:0.5;" width="15" x="511" y="334.96"/><rect fill="#FFF8E1" height="2" style="stroke:#78909C;stroke-width:0.5;" width="4" x="509" y="336.96"/><rect fill="#FFF8E1" height="2" style="stroke:#78909C;stroke-width:0.5;" width="4" x="509" y="340.96"/><text fill="#000000" font-family="Segoe UI" font-size="14" lengthAdjust="spacing" textLength="141" x="365" y="363.4952">market-data-service</text></g><!--entity US--><g id="elem_US"><rect fill="#FCE4EC" height="46.4883" rx="2.5" ry="2.5" style="stroke:#78909C;stroke-width:0.5;" width="125" x="788" y="455.17"/><rect fill="#FCE4EC" height="10" style="stroke:#78909C;stroke-width:0.5;" width="15" x="893" y="460.17"/><rect fill="#FCE4EC" height="2" style="stroke:#78909C;stroke-width:0.5;" width="4" x="891" y="462.17"/><rect fill="#FCE4EC" height="2" style="stroke:#78909C;stroke-width:0.5;" width="4" x="891" y="466.17"/><text fill="#000000" font-family="Segoe UI" font-size="14" lengthAdjust="spacing" textLength="85" x="803" y="488.7052">user-service</text></g><!--entity ONB--><g id="elem_ONB"><rect fill="#EDE7F6" height="46.4883" rx="2.5" ry="2.5" style="stroke:#78909C;stroke-width:0.5;" width="176" x="565.5" y="329.96"/><rect fill="#EDE7F6" height="10" style="stroke:#78909C;stroke-width:0.5;" width="15" x="721.5" y="334.96"/><rect fill="#EDE7F6" height="2" style="stroke:#78909C;stroke-width:0.5;" width="4" x="719.5" y="336.96"/><rect fill="#EDE7F6" height="2" style="stroke:#78909C;stroke-width:0.5;" width="4" x="719.5" y="340.96"/><text fill="#000000" font-family="Segoe UI" font-size="14" lengthAdjust="spacing" textLength="136" x="580.5" y="363.4952">onboarding-service</text></g><!--entity TR--><g id="elem_TR"><rect fill="#E3F2FD" height="46.4883" rx="2.5" ry="2.5" style="stroke:#78909C;stroke-width:0.5;" width="172" x="497.5" y="455.17"/><rect fill="#E3F2FD" height="10" style="stroke:#78909C;stroke-width:0.5;" width="15" x="649.5" y="460.17"/><rect fill="#E3F2FD" height="2" style="stroke:#78909C;stroke-width:0.5;" width="4" x="647.5" y="462.17"/><rect fill="#E3F2FD" height="2" style="stroke:#78909C;stroke-width:0.5;" width="4" x="647.5" y="466.17"/><text fill="#000000" font-family="Segoe UI" font-size="14" lengthAdjust="spacing" textLength="132" x="512.5" y="488.7052">transaction-service</text></g><!--entity PF--><g id="elem_PF"><rect fill="#E8F5E9" height="46.4883" rx="2.5" ry="2.5" style="stroke:#78909C;stroke-width:0.5;" width="155" x="493" y="580.38"/><rect fill="#E8F5E9" height="10" style="stroke:#78909C;stroke-width:0.5;" width="15" x="628" y="585.38"/><rect fill="#E8F5E9" height="2" style="stroke:#78909C;stroke-width:0.5;" width="4" x="626" y="587.38"/><rect fill="#E8F5E9" height="2" style="stroke:#78909C;stroke-width:0.5;" width="4" x="626" y="591.38"/><text fill="#000000" font-family="Segoe UI" font-size="14" lengthAdjust="spacing" textLength="115" x="508" y="613.9152">portfolio-service</text></g><!--entity User--><g id="elem_User"><ellipse cx="939.5" cy="14" fill="#F1F1F1" rx="8" ry="8" style="stroke:#37474F;stroke-width:0.5;"/><path d="M939.5,22 L939.5,49 M926.5,30 L952.5,30 M939.5,49 L926.5,64 M939.5,49 L952.5,64 " fill="none" style="stroke:#37474F;stroke-width:0.5;"/><text fill="#000000" font-family="Segoe UI" font-size="14" lengthAdjust="spacing" textLength="60" x="909.5" y="79.0352">End user</text></g><!--entity Binance--><g id="elem_Binance"><path d="M349.5329,165.8115 C353.9878,159.9786 359.1115,160.015 363.4756,165.9195 C366.034,159.0949 372.1909,159.8899 375.9608,164.6092 C379.5874,158.0275 384.6175,158.495 388.855,163.9551 C393.4835,158.578 397.9493,159.6401 401.2992,165.3856 C404.0178,158.3676 410.1867,158.7704 414.5299,163.566 C418.1911,155.9998 424.255,156.7252 428.4323,163.0494 C432.3806,157.8713 438.4705,157.3718 441.1326,164.3888 C444.2883,157.6718 450.1876,157.3347 454.4326,163.241 C458.7933,156.8945 465.1196,158.7172 468.1824,164.6896 C471.7171,158.3402 476.795,156.8013 481.3574,163.6649 C485.6225,157.14 491.6296,157.3443 494.5762,164.9024 C497.4159,159.3057 503.5109,158.8213 507.0896,164.048 C510.9787,158.0459 517.6946,158.1199 520.5188,165.1457 C525.0785,157.7044 529.3317,157.705 534.3916,164.6639 C546.0211,170.6485 546.0523,180.7403 536.7652,188.7834 C546.1141,197.5891 545.9325,206.4002 534.3746,213.1553 C530.5294,219.9356 525.4438,219.5143 521.2639,213.4982 C516.3689,221.8171 511.5926,221.636 506.1598,214.0076 C503.5813,219.0049 499.0544,220.8212 495.0692,215.523 C492.0685,221.8095 485.0183,222.9053 480.5349,217.3414 C476.5009,223.1671 471.6814,225.3961 466.8626,218.163 C463.8827,223.7313 460.6445,226.07 455.3201,220.6187 C452.36,227.023 447.5907,227.8669 442.9596,222.3514 C437.2435,229.511 432.0575,228.6987 428.2262,220.5388 C423.9964,225.6891 419.5474,224.9723 416.5125,219.2513 C412.6376,225.3365 405.7027,225.8756 402.6574,218.4035 C397.5383,223.3938 392.9346,224.2448 389.5547,216.5999 C384.4268,222.9543 379.9887,221.9282 376.8011,214.7687 C372.6679,221.0267 367.8938,219.9796 364.5292,213.998 C359.4938,221.2556 352.8592,219.905 349.8248,212.0508 C339.6374,206.3467 338.2208,197.5816 346.6214,189.2644 C335.2844,181.3684 338.7686,170.9639 349.5329,165.8115 " fill="#FFF3E0" style="stroke:#78909C;stroke-width:0.5;"/><text fill="#000000" font-family="Segoe UI" font-size="14" lengthAdjust="spacing" textLength="94" x="393.5" y="184.5252">Binance feeds</text><text fill="#000000" font-family="Segoe UI" font-size="14" lengthAdjust="spacing" textLength="169" x="356" y="201.0134">(external market source)</text></g><!--entity Camunda--><g id="elem_Camunda"><path d="M886.802,165.2352 C890.4943,157.3017 896.276,157.5604 900.9812,164.2532 C905.2634,157.7123 909.2925,158.8644 913.5389,164.2908 C917.1184,156.5377 923.1801,155.9429 927.6714,163.4462 C932.3587,157.7196 936.6643,157.9923 940.3643,164.4729 C943.0114,157.1803 949.0157,157.9698 953.2048,162.8458 C958.5118,157.5454 963.8821,157.5944 966.9693,165.2112 C971.6208,159.0072 975.7946,157.7991 980.8857,164.7458 C983.9023,158.4298 990.0321,158.6346 993.6521,164.0915 C1000.9499,167.3201 1001.4713,171.1269 995.8573,176.6269 C1001.8382,179.1099 1004.2123,184.4065 998.5318,189.3423 C1002.4297,193.3695 1002.8315,196.6548 997.1379,199.3454 C1001.6103,204.1235 1001.3298,211.0634 993.5706,212.5327 C990.7635,219.8108 984.047,220.6272 979.5915,214.2161 C975.1565,220.0851 970.9303,220.9537 966.52,214.1907 C963.8163,221.4605 957.39,221.7081 953.0682,215.8485 C950.3151,222.4227 946.2882,222.6726 941.114,218.5556 C937.2017,223.4703 930.7311,223.7748 928.0073,217.1999 C923.1778,222.7092 918.339,222.3891 914.7243,215.8596 C910.7672,221.7235 904.4134,221.3348 901.7899,214.5012 C896.126,221.199 891.1653,220.4605 887.2947,212.7029 C881.2257,210.4134 879.6868,206.5588 883.5996,201.0924 C877.4148,197.9955 876.7808,193.8676 881.3952,188.8294 C876.7944,183.6705 878.4174,179.0321 884.3962,176.4348 C880.707,171.7573 881.5082,167.9831 886.802,165.2352 " fill="#E3F2FD" style="stroke:#78909C;stroke-width:0.5;"/><text fill="#000000" font-family="Segoe UI" font-size="14" lengthAdjust="spacing" textLength="79" x="900" y="184.5252">Camunda 8</text><text fill="#000000" font-family="Segoe UI" font-size="14" lengthAdjust="spacing" textLength="92" x="893.5" y="201.0134">orchestration</text></g><g id="elem_GMN11"><path d="M6,450.45 L6,506.3816 L283,506.3816 L283,460.45 L273,450.45 L6,450.45 " fill="#FFFDE7" style="stroke:#BDBDBD;stroke-width:0.5;"/><path d="M273,450.45 L273,460.45 L283,460.45 L273,450.45 " fill="#FFFDE7" style="stroke:#BDBDBD;stroke-width:1.0;"/><text fill="#000000" font-family="Segoe UI" font-size="13" font-weight="bold" lengthAdjust="spacing" textLength="100" x="64.5" y="468.0184">shared-events</text><text fill="#000000" font-family="Segoe UI" font-size="13" lengthAdjust="spacing" textLength="47" x="168.5" y="468.0184">module</text><text fill="#000000" font-family="Segoe UI" font-size="13" lengthAdjust="spacing" textLength="201" x="39.5" y="483.3289">Kafka event contracts shared by</text><text fill="#000000" font-family="Segoe UI" font-size="13" lengthAdjust="spacing" textLength="256" x="12" y="498.6395">market-data, user, transaction, portfolio</text></g><!--link Platform to GMN11--><g id="link_Platform_GMN11"><path d="M306.3276,360.1315 C305.9117,360.4328 305.4817,360.7444 305.0379,361.0659 C303.2629,362.3519 301.2684,363.797 299.0806,365.3822 C290.3294,371.7231 278.485,380.3063 265.2225,389.9175 C238.6975,409.14 206.5,432.475 182.03,450.21 " fill="none" id="Platform-GMN11" style="stroke:#546E7A;stroke-width:1.0;stroke-dasharray:7.0,7.0;"/></g><!--link Binance to MD--><g id="link_Binance_MD"><path d="M440.5,219.27 C440.5,251.51 440.5,295.34 440.5,323.95 " fill="none" id="Binance-to-MD" style="stroke:#546E7A;stroke-width:1.0;"/><polygon fill="#546E7A" points="440.5,329.95,444.5,320.95,440.5,324.95,436.5,320.95,440.5,329.95" style="stroke:#546E7A;stroke-width:1.0;"/></g><!--link User to Camunda--><g id="link_User_Camunda"><path d="M939.5,82.35 C939.5,105.31 939.5,128.3 939.5,149.86 " fill="none" id="User-to-Camunda" style="stroke:#546E7A;stroke-width:1.0;"/><polygon fill="#546E7A" points="939.5,155.86,943.5,146.86,939.5,150.86,935.5,146.86,939.5,155.86" style="stroke:#546E7A;stroke-width:1.0;"/><text fill="#37474F" font-family="Segoe UI" font-size="11" lengthAdjust="spacing" textLength="76" x="940.5" y="123.6248">Tasklist forms</text></g><!--link MD to TR--><g id="link_MD_TR"><path d="M466.73,376.8 C492.53,399.04 527.1439,428.8642 552.8939,451.0442 " fill="none" id="MD-to-TR" style="stroke:#546E7A;stroke-width:1.0;"/><polygon fill="#546E7A" points="557.44,454.96,553.2314,446.0556,553.6516,451.6968,548.0104,452.117,557.44,454.96" style="stroke:#546E7A;stroke-width:1.0;"/><text fill="#37474F" font-family="Segoe UI" font-size="11" lengthAdjust="spacing" textLength="87" x="517.29" y="418.0848">crypto.price.raw</text></g><!--link MD to PF--><g id="link_MD_PF"><path d="M417.94,376.88 C382.05,415.72 320.12,496.05 362.5,550.38 C378.7,571.15 434.6125,583.99 486.6825,592.16 " fill="none" id="MD-to-PF" style="stroke:#546E7A;stroke-width:1.0;"/><polygon fill="#546E7A" points="492.61,593.09,484.3388,587.7433,487.6704,592.315,483.0987,595.6466,492.61,593.09" style="stroke:#546E7A;stroke-width:1.0;"/><text fill="#37474F" font-family="Segoe UI" font-size="11" lengthAdjust="spacing" textLength="87" x="364.57" y="483.0548">crypto.price.raw</text></g><!--reverse link TR to US--><g id="link_TR_US"><path d="M675.82,478.42 C714.21,478.42 752.58,478.42 787.74,478.42 " fill="none" id="TR-backto-US" style="stroke:#546E7A;stroke-width:1.0;"/><polygon fill="#546E7A" points="669.82,478.42,678.82,482.42,674.82,478.42,678.82,474.42,669.82,478.42" style="stroke:#546E7A;stroke-width:1.0;"/><text fill="#37474F" font-family="Segoe UI" font-size="11" lengthAdjust="spacing" textLength="82" x="687.75" y="460.0548">user.confirmed</text><text fill="#37474F" font-family="Segoe UI" font-size="11" lengthAdjust="spacing" textLength="67" x="695.25" y="473.0098">(compacted)</text></g><!--link TR to PF--><g id="link_TR_PF"><path d="M497.07,500.8 C442.45,514.72 381.43,531.22 377.5,536.38 C343.55,580.99 419.335,595.3355 486.735,600.1155 " fill="none" id="TR-to-PF" style="stroke:#546E7A;stroke-width:1.0;"/><polygon fill="#546E7A" points="492.72,600.54,484.0255,595.9133,487.7325,600.1863,483.4596,603.8933,492.72,600.54" style="stroke:#546E7A;stroke-width:1.0;"/><text fill="#37474F" font-family="Segoe UI" font-size="11" lengthAdjust="spacing" textLength="148" x="378.5" y="548.0148">transaction.order.approved</text></g><!--link US to PF--><g id="link_US_PF"><path d="M810.42,502.12 C783.7,516.82 747.53,535.85 714.5,550.38 C690.16,561.09 668.5151,569.4051 644.2851,577.9951 " fill="none" id="US-to-PF" style="stroke:#546E7A;stroke-width:1.0;"/><polygon fill="#546E7A" points="638.63,580,648.4493,580.7628,643.3426,578.3293,645.7761,573.2226,638.63,580" style="stroke:#546E7A;stroke-width:1.0;"/><text fill="#37474F" font-family="Segoe UI" font-size="11" lengthAdjust="spacing" textLength="164" x="742.14" y="548.0148">crypto.portfolio.compensation</text></g><!--link PF to US--><g id="link_PF_US"><path d="M560.55,579.99 C556.05,565.95 553.67,548.36 563.5,536.38 C570.64,527.68 699.5641,504.7208 781.8441,490.8008 " fill="none" id="PF-to-US" style="stroke:#546E7A;stroke-width:1.0;"/><polygon fill="#546E7A" points="787.76,489.8,778.2189,487.3573,782.8301,490.634,779.5533,495.2452,787.76,489.8" style="stroke:#546E7A;stroke-width:1.0;"/><text fill="#37474F" font-family="Segoe UI" font-size="11" lengthAdjust="spacing" textLength="141" x="564.5" y="548.0148">crypto.user.compensation</text></g><!--reverse link Camunda to ONB--><g id="link_Camunda_ONB"><path d="M872.3405,192.8954 C795.9305,199.2254 677.77,214.19 649.5,248.96 C631.17,271.51 637.64,306.87 644.86,329.79 " fill="none" id="Camunda-backto-ONB" style="stroke:#546E7A;stroke-width:1.0;stroke-dasharray:7.0,7.0;"/><polygon fill="#546E7A" points="878.32,192.4,869.0205,189.1567,873.3371,192.8128,869.681,197.1294,878.32,192.4" style="stroke:#546E7A;stroke-width:1.0;"/><text fill="#37474F" font-family="Segoe UI" font-size="11" lengthAdjust="spacing" textLength="134" x="650.5" y="260.5948">deploys userOnboarding</text></g><!--link TR to Camunda--><g id="link_TR_Camunda"><path d="M669.73,471.18 C721.26,464.38 786.42,450.16 837.5,420.45 C909.38,378.64 930.016,278.0886 936.266,225.1886 " fill="none" id="TR-to-Camunda" style="stroke:#546E7A;stroke-width:1.0;stroke-dasharray:7.0,7.0;"/><polygon fill="#546E7A" points="936.97,219.23,931.9416,227.6985,936.3833,224.1955,939.8864,228.6372,936.97,219.23" style="stroke:#546E7A;stroke-width:1.0;"/><text fill="#37474F" font-family="Segoe UI" font-size="11" lengthAdjust="spacing" textLength="105" x="928.52" y="357.8448">deploys placeOrder</text></g><!--link Camunda to TR--><g id="link_Camunda_TR"><path d="M883.84,219.4 C862.07,233.27 837.95,251.01 819.5,270.96 C782.73,310.72 796.81,338.17 758.5,376.45 C724.13,410.78 681.1696,434.9881 643.9796,452.2981 " fill="none" id="Camunda-to-TR" style="stroke:#546E7A;stroke-width:1.0;stroke-dasharray:7.0,7.0;"/><polygon fill="#546E7A" points="638.54,454.83,648.3874,454.6586,643.073,452.7201,645.0115,447.4058,638.54,454.83" style="stroke:#546E7A;stroke-width:1.0;"/><text fill="#37474F" font-family="Segoe UI" font-size="11" lengthAdjust="spacing" textLength="56" x="820.5" y="357.8448">order jobs</text></g><!--link Camunda to US--><g id="link_Camunda_US"><path d="M1000.94,217.33 C1021.87,230.53 1042.89,248.34 1054.5,270.96 C1075.91,312.67 1079.23,336.62 1054.5,376.45 C1023.86,425.8 966.9252,450.1789 919.0752,463.3389 " fill="none" id="Camunda-to-US" style="stroke:#546E7A;stroke-width:1.0;stroke-dasharray:7.0,7.0;"/><polygon fill="#546E7A" points="913.29,464.93,923.0285,466.4002,918.111,463.6041,920.9071,458.6866,913.29,464.93" style="stroke:#546E7A;stroke-width:1.0;"/><text fill="#37474F" font-family="Segoe UI" font-size="11" lengthAdjust="spacing" textLength="89" x="1072.82" y="357.8448">onboarding jobs</text></g><!--link Camunda to PF--><g id="link_Camunda_PF"><path d="M1000.98,191.64 C1055.57,198.09 1132.41,216.92 1170.5,270.96 C1197.51,309.28 1192.4,335 1170.5,376.45 C1071.3,564.2 792.8063,597.518 654.2263,602.418 " fill="none" id="Camunda-to-PF" style="stroke:#546E7A;stroke-width:1.0;stroke-dasharray:7.0,7.0;"/><polygon fill="#546E7A" points="648.23,602.63,657.3657,606.3095,653.2269,602.4533,657.083,598.3145,648.23,602.63" style="stroke:#546E7A;stroke-width:1.0;"/><text fill="#37474F" font-family="Segoe UI" font-size="11" lengthAdjust="spacing" textLength="89" x="1151.01" y="418.0848">onboarding jobs</text></g><!--SRC=[VPDDJzj048Rl-oj6uL8YOa49972eb0zRgge2Ad3Zil6EWnjxnzhTa4BL_zxPJUmwRY2M8YVppEpxpipQLQuhQMG92vckbeRMMise80FEI6qvXDe9sr3sMIhQv7e9cImijY8ACxakN4BQtSWIeNUFIq9u_Dhx7th0NsvIv4jTSdL8-GjDYpAOEgcN1Kx9A3HRFKUZyTNfrUmWrf5-b4pyqq9JAYlIVCx75TE2rkfZHAQEp1voFXgEXaaBqUGEI4gIUJpgKkqwqxb_MiJ46DhiWXV3otWqwGPzizzJqG3t-Hl2sPaGGJhqOgrWRT7qG5fuv1SHR4DlcckfKuGCKTad_Oc7X4RB0affLkZ0qjgaU1poQjRxEezFwn8pMR9b2UCdJIPzHijRv7BI8QSE7iNdoUTaBaGpG4uqhvMZfA0DL8Lq6PaovDpjVl115_w1tmBuqymJUbjn0oMT7B2Pbpp5aFbz7iIDuxDkXZU_XpxUCpgBX_6iYv9Ua3IAztqluVPcoYvudibbDoDS6-uqczvBUVZH-EvaL6JOOf7J7d-NC3zEBk8hyKS8loom8EUe1CgQhd2fVf-lf44rm1UkPljzA4cj2-JGDvcj98J_-JpDob9dOOl3ufM9LkzEmawSG4l_2JJI1FBIU152r9CV3BvmZuLVeF1UJ_SQ7gHT5Rbru2LQ8NWI7k0EN4CQvXnLXdr6Hcxg8Diz4EJ130hCN9tj9KPi9SjDYOfNrBUHnQ8w5WmCJBvyTdMrbfCetBD8LfMX5rIXRlVGschaQo9d-aJ1Y2SveI5t8bgGyFiGhQketGM5LK6lDcY-RTR8oumEShpsATvwdQ8EUZ2S_6yDuISjx1uGJBmFHBlMXGviWty1]--></g></svg>