<?xml version="1.0" encoding="us-ascii" standalone="no"?><svg xmlns="http://www.w3.org/2000/svg" xmlns:xlink="http://www.w3.org/1999/xlink" contentStyleType="text/css" height="472px" preserveAspectRatio="none" style="width:988px;height:472px;" version="1.1" viewBox="0 0 988 472" width="988px" zoomAndPan="magnify"><defs/><g><!--cluster docker--><g id="cluster_docker"><rect fill="#F5F5F5" height="368.46" rx="2.5" ry="2.5" style="stroke:#78909C;stroke-width:1.0;" width="806" x="7" y="97.99"/><text fill="#000000" font-family="Segoe UI" font-size="14" font-weight="bold" lengthAdjust="spacing" textLength="122" x="349" y="113.5252">Docker Compose</text></g><!--cluster services--><g id="cluster_services"><rect fill="#E8EAF6" height="113.48" rx="2.5" ry="2.5" style="stroke:#78909C;stroke-width:1.0;" width="742" x="39" y="148.99"/><text fill="#000000" font-family="Segoe UI" font-size="14" font-weight="bold" lengthAdjust="spacing" textLength="98" x="361" y="164.5252">Microservices</text></g><!--entity Kafka--><g id="elem_Kafka"><rect fill="#FFF3E0" height="46.4883" rx="2.5" ry="2.5" style="stroke:#181818;stroke-width:0.5;" width="133" x="22.5" y="298.47"/><rect fill="#FFF3E0" height="10" style="stroke:#181818;stroke-width:0.5;" width="15" x="135.5" y="303.47"/><rect fill="#FFF3E0" height="2" style="stroke:#181818;stroke-width:0.5;" width="4" x="133.5" y="305.47"/><rect fill="#FFF3E0" height="2" style="stroke:#181818;stroke-width:0.5;" width="4" x="133.5" y="309.47"/><text fill="#000000" font-family="Segoe UI" font-size="14" lengthAdjust="spacing" textLength="93" x="37.5" y="332.0052">Apache Kafka</text></g><!--entity TDB--><g id="elem_TDB"><path d="M371.5,414.96 C371.5,404.96 433,404.96 433,404.96 C433,404.96 494.5,404.96 494.5,414.96 L494.5,440.4483 C494.5,450.4483 433,450.4483 433,450.4483 C433,450.4483 371.5,450.4483 371.5,440.4483 L371.5,414.96 " fill="#E3F2FD" style="stroke:#181818;stroke-width:0.5;"/><path d="M371.5,414.96 C371.5,424.96 433,424.96 433,424.96 C433,424.96 494.5,424.96 494.5,414.96 " fill="none" style="stroke:#181818;stroke-width:0.5;"/><text fill="#000000" font-family="Segoe UI" font-size="14" lengthAdjust="spacing" textLength="103" x="381.5" y="442.4952">Transaction DB</text></g><!--entity UDB--><g id="elem_UDB"><path d="M529.5,414.96 C529.5,404.96 566,404.96 566,404.96 C566,404.96 602.5,404.96 602.5,414.96 L602.5,440.4483 C602.5,450.4483 566,450.4483 566,450.4483 C566,450.4483 529.5,450.4483 529.5,440.4483 L529.5,414.96 " fill="#FCE4EC" style="stroke:#181818;stroke-width:0.5;"/><path d="M529.5,414.96 C529.5,424.96 566,424.96 566,424.96 C566,424.96 602.5,424.96 602.5,414.96 " fill="none" style="stroke:#181818;stroke-width:0.5;"/><text fill="#000000" font-family="Segoe UI" font-size="14" lengthAdjust="spacing" textLength="53" x="539.5" y="442.4952">User DB</text></g><!--entity PDB--><g id="elem_PDB"><path d="M235.5,414.96 C235.5,404.96 286,404.96 286,404.96 C286,404.96 336.5,404.96 336.5,414.96 L336.5,440.4483 C336.5,450.4483 286,450.4483 286,450.4483 C286,450.4483 235.5,450.4483 235.5,440.4483 L235.5,414.96 " fill="#E8F5E9" style="stroke:#181818;stroke-width:0.5;"/><path d="M235.5,414.96 C235.5,424.96 286,424.96 286,424.96 C286,424.96 336.5,424.96 336.5,414.96 " fill="none" style="stroke:#181818;stroke-width:0.5;"/><text fill="#000000" font-family="Segoe UI" font-size="14" lengthAdjust="spacing" textLength="81" x="245.5" y="442.4952">Portfolio DB</text></g><!--entity MDS--><g id="elem_MDS"><rect fill="#FFF8E1" height="46.4883" rx="2.5" ry="2.5" style="stroke:#181818;stroke-width:0.5;" width="122" x="82" y="191.99"/><rect fill="#FFF8E1" height="10" style="stroke:#181818;stroke-width:0.5;" width="15" x="184" y="196.99"/><rect fill="#FFF8E1" height="2" style="stroke:#181818;stroke-width:0.5;" width="4" x="182" y="198.99"/><rect fill="#FFF8E1" height="2" style="stroke:#181818;stroke-width:0.5;" width="4" x="182" y="202.99"/><text fill="#000000" font-family="Segoe UI" font-size="14" lengthAdjust="spacing" textLength="82" x="97" y="225.5252">Market Data</text></g><!--entity PS--><g id="elem_PS"><rect fill="#E8F5E9" height="46.4883" rx="2.5" ry="2.5" style="stroke:#181818;stroke-width:0.5;" width="99" x="238.5" y="191.99"/><rect fill="#E8F5E9" height="10" style="stroke:#181818;stroke-width:0.5;" width="15" x="317.5" y="196.99"/><rect fill="#E8F5E9" height="2" style="stroke:#181818;stroke-width:0.5;" width="4" x="315.5" y="198.99"/><rect fill="#E8F5E9" height="2" style="stroke:#181818;stroke-width:0.5;" width="4" x="315.5" y="202.99"/><text fill="#000000" font-family="Segoe UI" font-size="14" lengthAdjust="spacing" textLength="59" x="253.5" y="225.5252">Portfolio</text></g><!--entity TS--><g id="elem_TS"><rect fill="#E3F2FD" height="46.4883" rx="2.5" ry="2.5" style="stroke:#181818;stroke-width:0.5;" width="121" x="372.5" y="191.99"/><rect fill="#E3F2FD" height="10" style="stroke:#181818;stroke-width:0.5;" width="15" x="473.5" y="196.99"/><rect fill="#E3F2FD" height="2" style="stroke:#181818;stroke-width:0.5;" width="4" x="471.5" y="198.99"/><rect fill="#E3F2FD" height="2" style="stroke:#181818;stroke-width:0.5;" width="4" x="471.5" y="202.99"/><text fill="#000000" font-family="Segoe UI" font-size="14" lengthAdjust="spacing" textLength="81" x="387.5" y="225.5252">Transaction</text></g><!--entity US--><g id="elem_US"><rect fill="#FCE4EC" height="46.4883" rx="2.5" ry="2.5" style="stroke:#181818;stroke-width:0.5;" width="71" x="528.5" y="191.99"/><rect fill="#FCE4EC" height="10" style="stroke:#181818;stroke-width:0.5;" width="15" x="579.5" y="196.99"/><rect fill="#FCE4EC" height="2" style="stroke:#181818;stroke-width:0.5;" width="4" x="577.5" y="198.99"/><rect fill="#FCE4EC" height="2" style="stroke:#181818;stroke-width:0.5;" width="4" x="577.5" y="202.99"/><text fill="#000000" font-family="Segoe UI" font-size="14" lengthAdjust="spacing" textLength="31" x="543.5" y="225.5252">User</text></g><!--entity OS--><g id="elem_OS"><rect fill="#EDE7F6" height="46.4883" rx="2.5" ry="2.5" style="stroke:#181818;stroke-width:0.5;" width="123" x="634.5" y="191.99"/><rect fill="#EDE7F6" height="10" style="stroke:#181818;stroke-width:0.5;" width="15" x="737.5" y="196.99"/><rect fill="#EDE7F6" height="2" style="stroke:#181818;stroke-width:0.5;" width="4" x="735.5" y="198.99"/><rect fill="#EDE7F6" height="2" style="stroke:#181818;stroke-width:0.5;" width="4" x="735.5" y="202.99"/><text fill="#000000" font-family="Segoe UI" font-size="14" lengthAdjust="spacing" textLength="83" x="649.5" y="225.5252">Onboarding</text></g><!--entity Binance--><g id="elem_Binance"><path d="M97.4878,30.3434 C100.2817,24.7866 104.4463,24.5629 108.521,28.9176 C111.3074,24.147 116.9527,23.0677 119.9258,28.7131 C122.7572,22.6657 127.4343,21.9381 132.3099,26.2754 C135.4061,21.2991 139.354,21.3054 143.1701,25.4149 C147.7784,19.7042 152.4354,21.1433 155.7513,26.8402 C159.525,21.8507 163.3462,22.4295 166.9549,27.0328 C170.794,21.1821 176.9075,21.3583 179.5857,28.189 C183.5949,23.6211 188.2212,24.5605 189.942,30.4544 C197.8264,33.7569 197.7036,39.7069 191.6741,44.701 C198.9909,49.2997 199.7836,56.2277 191.2582,60.4068 C187.3306,65.9582 181.5161,66.1587 178.3273,59.6167 C175.116,65.8282 171.0843,65.7752 167.0776,60.3882 C163.8322,65.6254 158.6404,66.1486 155.551,60.2271 C153.0473,66.0515 149.5222,66.2768 144.9933,62.4403 C140.2746,68.5786 136.3915,67.7677 132.8265,61.3246 C129.1834,67.4082 123.4889,65.949 120.3504,60.766 C117.0891,67.2142 111.9881,67.1053 108.338,61.1424 C104.901,65.2939 100.8116,64.814 98.5933,59.8408 C89.0563,60.335 84.5868,53.6936 89.1015,45.1246 C85.5142,36.631 87.0448,30.8768 97.4878,30.3434 " fill="#FFF3E0" style="stroke:#181818;stroke-width:0.5;"/><text fill="#000000" font-family="Segoe UI" font-size="14" lengthAdjust="spacing" textLength="79" x="103.5" y="49.0352">Binance API</text></g><!--entity Camunda--><g id="elem_Camunda"><path d="M838.7642,307.8384 C841.8564,303.0185 847.6054,302.1458 850.645,307.8974 C853.7447,299.6665 858.8739,299.7861 864.5649,305.2668 C868.833,298.945 873.7122,298.5095 878.1371,305.1022 C881.1512,298.5213 886.8069,297.4461 890.9936,303.9501 C894.6963,298.1092 899.7466,298.1224 902.9047,304.4817 C906.7264,298.26 911.5554,297.6226 915.9346,303.9006 C920.6753,298.2815 925.7277,300.5592 928.3288,306.2461 C931.4785,299.3351 937.5764,300.455 941.0935,305.8654 C945.8882,299.1972 951.4099,300.3893 954.8313,307.259 C958.9682,300.8108 963.0957,301.7452 967.3902,307.0912 C976.0611,308.502 978.5469,314.9187 974.1773,322.1909 C981.1051,331.4274 975.7717,336.9997 966.6647,339.1206 C963.2317,345.1641 958.9995,345.3715 954.7283,339.9968 C950.7336,346.1008 946.9094,346.4091 942.8653,340.0437 C938.555,347.665 933.587,347.8971 928.4799,340.8236 C925.941,348.0719 921.308,348.5374 916.0474,343.6005 C912.0692,350.7249 907.1,350.838 903.0112,343.7017 C898.3406,349.1332 893.6877,350.0389 890.0903,342.6224 C885.2808,348.849 880.0406,347.5059 876.8918,340.9126 C871.5971,347.5143 867.6472,345.727 863.4579,339.7336 C860.1609,345.0683 855.2782,344.0623 852.3628,339.3136 C848.2647,345.9864 841.1267,345.3219 837.6013,338.6787 C829.3626,334.7304 827.6598,329.4724 834.0653,322.3525 C828.5542,315.9265 830.827,309.9104 838.7642,307.8384 " fill="#E3F2FD" style="stroke:#181818;stroke-width:0.5;"/><text fill="#000000" font-family="Segoe UI" font-size="14" lengthAdjust="spacing" textLength="115" x="844.5" y="327.0052">Camunda 8 SaaS</text></g><!--entity User--><g id="elem_User"><ellipse cx="360" cy="14" fill="#F1F1F1" rx="8" ry="8" style="stroke:#181818;stroke-width:0.5;"/><path d="M360,22 L360,49 M347,30 L373,30 M360,49 L347,64 M360,49 L373,64 " fill="none" style="stroke:#181818;stroke-width:0.5;"/><text fill="#000000" font-family="Segoe UI" font-size="14" lengthAdjust="spacing" textLength="61" x="329.5" y="79.0352">End User</text></g><!--link Binance to MDS--><g id="link_Binance_MDS"><path d="M143,67.25 C143,99.66 143,153.16 143,185.63 " fill="none" id="Binance-to-MDS" style="stroke:#181818;stroke-width:1.0;"/><polygon fill="#181818" points="143,191.63,147,182.63,143,186.63,139,182.63,143,191.63" style="stroke:#181818;stroke-width:1.0;"/></g><!--link User to PS--><g id="link_User_PS"><path d="M344.02,82.36 C329.77,115.9 311.7263,158.3778 299.8763,186.2678 " fill="none" id="User-to-PS" style="stroke:#181818;stroke-width:1.0;"/><polygon fill="#181818" points="297.53,191.79,304.7309,185.0709,299.4852,187.1882,297.368,181.9425,297.53,191.79" style="stroke:#181818;stroke-width:1.0;"/></g><!--link User to TS--><g id="link_User_TS"><path d="M376.2,82.36 C390.65,115.9 408.9469,158.3892 420.9569,186.2792 " fill="none" id="User-to-TS" style="stroke:#181818;stroke-width:1.0;"/><polygon fill="#181818" points="423.33,191.79,423.4443,181.9418,421.3525,187.1977,416.0966,185.1059,423.33,191.79" style="stroke:#181818;stroke-width:1.0;"/></g><!--link services to Kafka--><g id="link_services_Kafka"><path d="M61.984,268.3543 C62.5786,270.0759 61.4642,266.7648 62.0886,268.4704 C63.3373,271.8817 64.6438,275.2413 66,278.47 C68.78,285.1 69.4175,286.7723 72.8475,293.0623 " fill="none" id="services-Kafka" style="stroke:#181818;stroke-width:1.0;"/><polygon fill="#181818" points="60.0374,262.6788,59.1737,272.4897,61.6596,267.4084,66.741,269.8943,60.0374,262.6788" style="stroke:#181818;stroke-width:1.0;"/><polygon fill="#181818" points="75.72,298.33,74.923,288.5134,73.3262,293.9403,67.8994,292.3435,75.72,298.33" style="stroke:#181818;stroke-width:1.0;"/></g><!--link PS to PDB--><g id="link_PS_PDB"><path d="M287.79,238.75 C287.4,279.37 286.59,364.39 286.21,404.66 " fill="none" id="PS-PDB" style="stroke:#181818;stroke-width:1.0;"/></g><!--link TS to TDB--><g id="link_TS_TDB"><path d="M433,238.75 C433,279.37 433,364.39 433,404.66 " fill="none" id="TS-TDB" style="stroke:#181818;stroke-width:1.0;"/></g><!--link US to UDB--><g id="link_US_UDB"><path d="M564.21,238.75 C564.6,279.37 565.41,364.39 565.79,404.66 " fill="none" id="US-UDB" style="stroke:#181818;stroke-width:1.0;"/></g><!--link PS to Camunda--><g id="link_PS_Camunda"><path d="M305.23,238.95 C317.42,253.1 335.08,270.14 355,278.47 C448.99,317.78 712.18,283.83 813,298.47 C818.36,299.25 817.9716,299.0679 823.4916,300.1479 " fill="none" id="PS-to-Camunda" style="stroke:#181818;stroke-width:1.0;stroke-dasharray:7.0,7.0;"/><polygon fill="#181818" points="829.38,301.3,821.3155,295.6463,824.473,300.3399,819.7794,303.4975,829.38,301.3" style="stroke:#181818;stroke-width:1.0;"/></g><!--link TS to Camunda--><g id="link_TS_Camunda"><path d="M453.87,238.82 C468.39,252.92 489.03,269.96 511,278.47 C573.71,302.78 746.55,288.06 813,298.47 C818.35,299.31 817.9702,299.1248 823.4802,300.2448 " fill="none" id="TS-to-Camunda" style="stroke:#181818;stroke-width:1.0;stroke-dasharray:7.0,7.0;"/><polygon fill="#181818" points="829.36,301.44,821.3371,295.7274,824.4602,300.444,819.7436,303.5671,829.36,301.44" style="stroke:#181818;stroke-width:1.0;"/></g><!--link US to Camunda--><g id="link_US_Camunda"><path d="M576.96,238.83 C586.23,252.74 600.04,269.56 617,278.47 C655.76,298.83 769.87,290.92 813,298.47 C818.33,299.41 817.9487,299.2539 823.4587,300.4139 " fill="none" id="US-to-Camunda" style="stroke:#181818;stroke-width:1.0;stroke-dasharray:7.0,7.0;"/><polygon fill="#181818" points="829.33,301.65,821.3471,295.8817,824.4373,300.6199,819.699,303.7101,829.33,301.65" style="stroke:#181818;stroke-width:1.0;"/></g><!--link OS to Camunda--><g id="link_OS_Camunda"><path d="M740.7,238.9 C775.25,256.43 817.5093,277.8552 852.0393,295.3752 " fill="none" id="OS-to-Camunda" style="stroke:#181818;stroke-width:1.0;stroke-dasharray:7.0,7.0;"/><polygon fill="#181818" points="857.39,298.09,851.1739,290.4506,852.9311,295.8276,847.5541,297.5848,857.39,298.09" style="stroke:#181818;stroke-width:1.0;"/></g><!--SRC=[RPB1RkCW48RlFCN8ERlgRhTj8bML4XkaQjN6akC7c019BJiG0TazL7tt0Yw9KnakCyCtmpy3jclL4GqUO8kysnjzKgBGlJRW32hhZwHon9uf-uv2_s_L7dROMpaw4NA7fzunhTmR7YHajTnh2SrBDeACv0xLlfShROGqmqspn_dYTb5COZz4pTWoR4BE16IbvfqqKEZ3KLkP0LeGGsZ6xiE63m9-ZL9UMsuyQ_wrNDgOaHoOqJbTieVldB1uAApy67mUcauwAD5Xp7ejQty9OtFwQmglj74xtRSwmbKTYhDxkfXYDs7So5shLQGtWRvZlravHJTURyIQ8A2WVsWnXQtLLgCH_haYl0urI_h87YByISWFVdb4_YxXB-wweS5enHRlw6saXUzzYrPUAOPoDOWkLrUgBt0GdAWcK2FH5-eyi8HMiU0mD2-Nz_ea85kr2XMNiAnU8fNyfFCRA_3WFmx276h4Ef8fb4Hw-VvNPLG9k8pK6uIacdd-79wPn0Q2KutiJKt8-USyXKWS6F5FdUTvK4ysW-adGvh1zEsJGDpSF2SzWHgxpRMxldQ_0000]--></g></svg>