<?plantuml 1.2026.2?><svg xmlns="http://www.w3.org/2000/svg" xmlns:xlink="http://www.w3.org/1999/xlink" contentStyleType="text/css" data-diagram-type="SEQUENCE" height="656px" preserveAspectRatio="none" style="width:727px;height:656px;" version="1.1" viewBox="0 0 727 656" width="727px" zoomAndPan="magnify"><defs/><g><rect fill="none" height="127.1309" style="stroke:#90A4AE;stroke-width:1.5;" width="452.3926" x="120.4844" y="233.2637"/><rect fill="none" height="183.752" style="stroke:#90A4AE;stroke-width:1.5;" width="637.5205" x="83" y="374.3945"/><g class="participant-lifeline" data-entity-uid="part1" data-qualified-name="User" id="part1-lifeline"><g><title>End user</title><rect fill="#000000" fill-opacity="0.00000" height="493.6582" width="8" x="33.4355" y="81.4883"/><line style="stroke:#B0BEC5;stroke-width:0.5;stroke-dasharray:5,5;" x1="37" x2="37" y1="81.4883" y2="575.1465"/></g></g><g class="participant-lifeline" data-entity-uid="part2" data-qualified-name="C" id="part2-lifeline"><g><title>Camunda</title><rect fill="#000000" fill-opacity="0.00000" height="493.6582" width="8" x="188.5171" y="81.4883"/><line style="stroke:#B0BEC5;stroke-width:0.5;stroke-dasharray:5,5;" x1="192.4844" x2="192.4844" y1="81.4883" y2="575.1465"/></g></g><g class="participant-lifeline" data-entity-uid="part3" data-qualified-name="U" id="part3-lifeline"><g><title>user-service</title><rect fill="#000000" fill-opacity="0.00000" height="493.6582" width="8" x="371.8398" y="81.4883"/><line style="stroke:#B0BEC5;stroke-width:0.5;stroke-dasharray:5,5;" x1="375.6484" x2="375.6484" y1="81.4883" y2="575.1465"/></g></g><g class="participant-lifeline" data-entity-uid="part4" data-qualified-name="P" id="part4-lifeline"><g><title>portfolio-service</title><rect fill="#000000" fill-opacity="0.00000" height="493.6582" width="8" x="494.9541" y="81.4883"/><line style="stroke:#B0BEC5;stroke-width:0.5;stroke-dasharray:5,5;" x1="498.0313" x2="498.0313" y1="81.4883" y2="575.1465"/></g></g><g class="participant-lifeline" data-entity-uid="part5" data-qualified-name="KC" id="part5-lifeline"><g><title>Kafka</title><rect fill="#000000" fill-opacity="0.00000" height="493.6582" width="8" x="648.7305" y="81.4883"/><line style="stroke:#B0BEC5;stroke-width:0.5;stroke-dasharray:5,5;" x1="651.9404" x2="651.9404" y1="81.4883" y2="575.1465"/></g></g><g class="participant participant-head" data-entity-uid="part1" data-qualified-name="User" id="part1-head"><text fill="#000000" font-family="'Segoe UI'" font-size="14" lengthAdjust="spacing" textLength="58.8711" x="5" y="78.5352">End user</text><ellipse cx="37.4355" cy="13.5" fill="#FAFAFA" rx="8" ry="8" style="stroke:#37474F;stroke-width:0.5;"/><path d="M37.4355,21.5 L37.4355,48.5 M24.4355,29.5 L50.4355,29.5 M37.4355,48.5 L24.4355,63.5 M37.4355,48.5 L50.4355,63.5" fill="none" style="stroke:#37474F;stroke-width:0.5;"/></g><g class="participant participant-tail" data-entity-uid="part1" data-qualified-name="User" id="part1-tail"><text fill="#000000" font-family="'Segoe UI'" font-size="14" lengthAdjust="spacing" textLength="58.8711" x="5" y="587.6816">End user</text><ellipse cx="37.4355" cy="599.1348" fill="#FAFAFA" rx="8" ry="8" style="stroke:#37474F;stroke-width:0.5;"/><path d="M37.4355,607.1348 L37.4355,634.1348 M24.4355,615.1348 L50.4355,615.1348 M37.4355,634.1348 L24.4355,649.1348 M37.4355,634.1348 L50.4355,649.1348" fill="none" style="stroke:#37474F;stroke-width:0.5;"/></g><g class="participant participant-head" data-entity-uid="part2" data-qualified-name="C" id="part2-head"><rect fill="#EDE7F6" height="46.9766" rx="2.5" ry="2.5" style="stroke:#78909C;stroke-width:0.5;" width="124.0654" x="130.4844" y="33.5117"/><text fill="#000000" font-family="'Segoe UI'" font-size="14" lengthAdjust="spacing" textLength="64.4082" x="160.313" y="54.0469">Camunda</text><text fill="#000000" font-family="'Segoe UI'" font-size="14" lengthAdjust="spacing" textLength="110.0654" x="137.4844" y="70.5352">userOnboarding</text></g><g class="participant participant-tail" data-entity-uid="part2" data-qualified-name="C" id="part2-tail"><rect fill="#EDE7F6" height="46.9766" rx="2.5" ry="2.5" style="stroke:#78909C;stroke-width:0.5;" width="124.0654" x="130.4844" y="574.1465"/><text fill="#000000" font-family="'Segoe UI'" font-size="14" lengthAdjust="spacing" textLength="64.4082" x="160.313" y="594.6816">Camunda</text><text fill="#000000" font-family="'Segoe UI'" font-size="14" lengthAdjust="spacing" textLength="110.0654" x="137.4844" y="611.1699">userOnboarding</text></g><g class="participant participant-head" data-entity-uid="part3" data-qualified-name="U" id="part3-head"><rect fill="#FCE4EC" height="30.4883" rx="2.5" ry="2.5" style="stroke:#78909C;stroke-width:0.5;" width="98.3828" x="326.6484" y="50"/><text fill="#000000" font-family="'Segoe UI'" font-size="14" lengthAdjust="spacing" textLength="84.3828" x="333.6484" y="70.5352">user-service</text></g><g class="participant participant-tail" data-entity-uid="part3" data-qualified-name="U" id="part3-tail"><rect fill="#FCE4EC" height="30.4883" rx="2.5" ry="2.5" style="stroke:#78909C;stroke-width:0.5;" width="98.3828" x="326.6484" y="574.1465"/><text fill="#000000" font-family="'Segoe UI'" font-size="14" lengthAdjust="spacing" textLength="84.3828" x="333.6484" y="594.6816">user-service</text></g><g class="participant participant-head" data-entity-uid="part4" data-qualified-name="P" id="part4-head"><rect fill="#E8F5E9" height="30.4883" rx="2.5" ry="2.5" style="stroke:#78909C;stroke-width:0.5;" width="127.8457" x="435.0313" y="50"/><text fill="#000000" font-family="'Segoe UI'" font-size="14" lengthAdjust="spacing" textLength="113.8457" x="442.0313" y="70.5352">portfolio-service</text></g><g class="participant participant-tail" data-entity-uid="part4" data-qualified-name="P" id="part4-tail"><rect fill="#E8F5E9" height="30.4883" rx="2.5" ry="2.5" style="stroke:#78909C;stroke-width:0.5;" width="127.8457" x="435.0313" y="574.1465"/><text fill="#000000" font-family="'Segoe UI'" font-size="14" lengthAdjust="spacing" textLength="113.8457" x="442.0313" y="594.6816">portfolio-service</text></g><g class="participant participant-head" data-entity-uid="part5" data-qualified-name="KC" id="part5-head"><path d="M599.9404,22.0234 L705.5205,22.0234 C710.5205,22.0234 710.5205,51.7559 710.5205,51.7559 C710.5205,51.7559 710.5205,81.4883 705.5205,81.4883 L599.9404,81.4883 C594.9404,81.4883 594.9404,51.7559 594.9404,51.7559 C594.9404,51.7559 594.9404,22.0234 599.9404,22.0234" fill="#FFF3E0" style="stroke:#181818;stroke-width:0.5;"/><path d="M705.5205,22.0234 C700.5205,22.0234 700.5205,51.7559 700.5205,51.7559 C700.5205,81.4883 705.5205,81.4883 705.5205,81.4883" fill="none" style="stroke:#181818;stroke-width:0.5;"/><text fill="#000000" font-family="'Segoe UI'" font-size="14" lengthAdjust="spacing" textLength="37.9326" x="628.7642" y="40.5586">Kafka</text><text fill="#000000" font-family="'Segoe UI'" font-size="14" lengthAdjust="spacing" textLength="95.5801" x="599.9404" y="57.0469">compensation</text><text fill="#000000" font-family="'Segoe UI'" font-size="14" lengthAdjust="spacing" textLength="41.002" x="627.2295" y="73.5352">topics</text></g><g class="participant participant-tail" data-entity-uid="part5" data-qualified-name="KC" id="part5-tail"><path d="M599.9404,574.1465 L705.5205,574.1465 C710.5205,574.1465 710.5205,603.8789 710.5205,603.8789 C710.5205,603.8789 710.5205,633.6113 705.5205,633.6113 L599.9404,633.6113 C594.9404,633.6113 594.9404,603.8789 594.9404,603.8789 C594.9404,603.8789 594.9404,574.1465 599.9404,574.1465" fill="#FFF3E0" style="stroke:#181818;stroke-width:0.5;"/><path d="M705.5205,574.1465 C700.5205,574.1465 700.5205,603.8789 700.5205,603.8789 C700.5205,633.6113 705.5205,633.6113 705.5205,633.6113" fill="none" style="stroke:#181818;stroke-width:0.5;"/><text fill="#000000" font-family="'Segoe UI'" font-size="14" lengthAdjust="spacing" textLength="37.9326" x="628.7642" y="592.6816">Kafka</text><text fill="#000000" font-family="'Segoe UI'" font-size="14" lengthAdjust="spacing" textLength="95.5801" x="599.9404" y="609.1699">compensation</text><text fill="#000000" font-family="'Segoe UI'" font-size="14" lengthAdjust="spacing" textLength="41.002" x="627.2295" y="625.6582">topics</text></g><g class="message" data-entity-1="part1" data-entity-2="part2" id="msg1"><polygon fill="#546E7A" points="180.5171,106.4434,190.5171,110.4434,180.5171,114.4434,184.5171,110.4434" style="stroke:#546E7A;stroke-width:1;"/><line style="stroke:#546E7A;stroke-width:1;" x1="37.4355" x2="186.5171" y1="110.4434" y2="110.4434"/><text fill="#37474F" font-family="'Segoe UI'" font-size="11" lengthAdjust="spacing" textLength="131.0815" x="44.4355" y="106.123">submit onboarding form</text></g><g class="message" data-entity-1="part2" data-entity-2="part3" id="msg2"><polygon fill="#546E7A" points="363.8398,133.3984,373.8398,137.3984,363.8398,141.3984,367.8398,137.3984" style="stroke:#546E7A;stroke-width:1;"/><line style="stroke:#546E7A;stroke-width:1;" x1="192.5171" x2="369.8398" y1="137.3984" y2="137.3984"/><text fill="#37474F" font-family="'Segoe UI'" font-size="11" lengthAdjust="spacing" textLength="135.9209" x="199.5171" y="133.0781">prepare confirmation link</text></g><g class="message" data-entity-1="part3" data-entity-2="part1" id="msg3"><polygon fill="#546E7A" points="48.4355,160.3535,38.4355,164.3535,48.4355,168.3535,44.4355,164.3535" style="stroke:#546E7A;stroke-width:1;"/><line style="stroke:#546E7A;stroke-width:1;stroke-dasharray:2,2;" x1="42.4355" x2="374.8398" y1="164.3535" y2="164.3535"/><text fill="#37474F" font-family="'Segoe UI'" font-size="11" lengthAdjust="spacing" textLength="129.4434" x="54.4355" y="160.0332">send confirmation email</text></g><g class="message" data-entity-1="part1" data-entity-2="part3" id="msg4"><polygon fill="#546E7A" points="363.8398,187.3086,373.8398,191.3086,363.8398,195.3086,367.8398,191.3086" style="stroke:#546E7A;stroke-width:1;"/><line style="stroke:#546E7A;stroke-width:1;" x1="37.4355" x2="369.8398" y1="191.3086" y2="191.3086"/><text fill="#37474F" font-family="'Segoe UI'" font-size="11" lengthAdjust="spacing" textLength="118.7979" x="44.4355" y="186.9883">click confirmation link</text></g><g class="message" data-entity-1="part3" data-entity-2="part2" id="msg5"><polygon fill="#546E7A" points="203.5171,214.2637,193.5171,218.2637,203.5171,222.2637,199.5171,218.2637" style="stroke:#546E7A;stroke-width:1;"/><line style="stroke:#546E7A;stroke-width:1;" x1="197.5171" x2="374.8398" y1="218.2637" y2="218.2637"/><text fill="#37474F" font-family="'Segoe UI'" font-size="11" lengthAdjust="spacing" textLength="159.3228" x="209.5171" y="213.9434">correlate UserConfirmedEvent</text></g><path d="M120.4844,233.2637 L187.6504,233.2637 L187.6504,240.5742 L177.6504,250.5742 L120.4844,250.5742 L120.4844,233.2637" fill="#ECEFF1" style="stroke:#90A4AE;stroke-width:1.5;"/><rect fill="none" height="127.1309" style="stroke:#90A4AE;stroke-width:1.5;" width="452.3926" x="120.4844" y="233.2637"/><text fill="#37474F" font-family="'Segoe UI'" font-size="13" font-weight="bold" lengthAdjust="spacing" textLength="22.166" x="135.4844" y="246.832">par</text><text fill="#000000" font-family="'Segoe UI'" font-size="11" font-weight="bold" lengthAdjust="spacing" textLength="99.6875" x="202.6504" y="245.8984">[Parallel creation]</text><g class="message" data-entity-1="part2" data-entity-2="part3" id="msg6"><polygon fill="#546E7A" points="363.8398,265.5293,373.8398,269.5293,363.8398,273.5293,367.8398,269.5293" style="stroke:#546E7A;stroke-width:1;"/><line style="stroke:#546E7A;stroke-width:1;" x1="192.5171" x2="369.8398" y1="269.5293" y2="269.5293"/><text fill="#37474F" font-family="'Segoe UI'" font-size="11" lengthAdjust="spacing" textLength="59.125" x="199.5171" y="265.209">create user</text></g><g class="message" data-entity-1="part3" data-entity-2="part2" id="msg7"><polygon fill="#546E7A" points="203.5171,292.4844,193.5171,296.4844,203.5171,300.4844,199.5171,296.4844" style="stroke:#546E7A;stroke-width:1;"/><line style="stroke:#546E7A;stroke-width:1;stroke-dasharray:2,2;" x1="197.5171" x2="374.8398" y1="296.4844" y2="296.4844"/><text fill="#37474F" font-family="'Segoe UI'" font-size="11" lengthAdjust="spacing" textLength="113.7974" x="209.5171" y="292.1641">user created or failed</text></g><line style="stroke:#90A4AE;stroke-width:1;stroke-dasharray:2,2;" x1="120.4844" x2="572.877" y1="305.4844" y2="305.4844"/><g class="message" data-entity-1="part2" data-entity-2="part4" id="msg8"><polygon fill="#546E7A" points="486.9541,321.4395,496.9541,325.4395,486.9541,329.4395,490.9541,325.4395" style="stroke:#546E7A;stroke-width:1;"/><line style="stroke:#546E7A;stroke-width:1;" x1="192.5171" x2="492.9541" y1="325.4395" y2="325.4395"/><text fill="#37474F" font-family="'Segoe UI'" font-size="11" lengthAdjust="spacing" textLength="82.2744" x="199.5171" y="321.1191">create portfolio</text></g><g class="message" data-entity-1="part4" data-entity-2="part2" id="msg9"><polygon fill="#546E7A" points="203.5171,348.3945,193.5171,352.3945,203.5171,356.3945,199.5171,352.3945" style="stroke:#546E7A;stroke-width:1;"/><line style="stroke:#546E7A;stroke-width:1;stroke-dasharray:2,2;" x1="197.5171" x2="497.9541" y1="352.3945" y2="352.3945"/><text fill="#37474F" font-family="'Segoe UI'" font-size="11" lengthAdjust="spacing" textLength="136.9468" x="209.5171" y="348.0742">portfolio created or failed</text></g><path d="M83,374.3945 L145.1387,374.3945 L145.1387,381.7051 L135.1387,391.7051 L83,391.7051 L83,374.3945" fill="#ECEFF1" style="stroke:#90A4AE;stroke-width:1.5;"/><rect fill="none" height="183.752" style="stroke:#90A4AE;stroke-width:1.5;" width="637.5205" x="83" y="374.3945"/><text fill="#37474F" font-family="'Segoe UI'" font-size="13" font-weight="bold" lengthAdjust="spacing" textLength="17.1387" x="98" y="387.9629">alt</text><text fill="#000000" font-family="'Segoe UI'" font-size="11" font-weight="bold" lengthAdjust="spacing" textLength="138.0962" x="160.1387" y="387.0293">[Both branches succeed]</text><path d="M93,396.7051 L93,421.7051 L291,421.7051 L291,406.7051 L281,396.7051 L93,396.7051" fill="#FFFDE7" style="stroke:#BDBDBD;stroke-width:0.5;"/><path d="M281,396.7051 L281,406.7051 L291,406.7051 L281,396.7051" fill="#FFFDE7" style="stroke:#BDBDBD;stroke-width:0.5;"/><text fill="#000000" font-family="'Segoe UI'" font-size="13" lengthAdjust="spacing" textLength="177.6772" x="99" y="414.2734">saga completes successfully</text><line style="stroke:#90A4AE;stroke-width:1;stroke-dasharray:2,2;" x1="83" x2="720.5205" y1="428.0156" y2="428.0156"/><text fill="#000000" font-family="'Segoe UI'" font-size="11" font-weight="bold" lengthAdjust="spacing" textLength="112.1753" x="88" y="438.6504">[Either branch fails]</text><g class="message" data-entity-1="part2" data-entity-2="part3" id="msg10"><polygon fill="#546E7A" points="363.8398,456.9258,373.8398,460.9258,363.8398,464.9258,367.8398,460.9258" style="stroke:#546E7A;stroke-width:1;"/><line style="stroke:#546E7A;stroke-width:1;" x1="192.5171" x2="369.8398" y1="460.9258" y2="460.9258"/><text fill="#37474F" font-family="'Segoe UI'" font-size="11" lengthAdjust="spacing" textLength="140.6743" x="199.5171" y="456.6055">run compensation handler</text></g><g class="message" data-entity-1="part3" data-entity-2="part5" id="msg11"><polygon fill="#546E7A" points="640.7305,483.8809,650.7305,487.8809,640.7305,491.8809,644.7305,487.8809" style="stroke:#546E7A;stroke-width:1;"/><line style="stroke:#546E7A;stroke-width:1;" x1="375.8398" x2="646.7305" y1="487.8809" y2="487.8809"/><text fill="#37474F" font-family="'Segoe UI'" font-size="11" lengthAdjust="spacing" textLength="177.5791" x="382.8398" y="483.5605">publish peer compensation event</text></g><g class="message" data-entity-1="part5" data-entity-2="part4" id="msg12"><polygon fill="#546E7A" points="509.9541,510.8359,499.9541,514.8359,509.9541,518.8359,505.9541,514.8359" style="stroke:#546E7A;stroke-width:1;"/><line style="stroke:#546E7A;stroke-width:1;stroke-dasharray:2,2;" x1="503.9541" x2="651.7305" y1="514.8359" y2="514.8359"/><text fill="#37474F" font-family="'Segoe UI'" font-size="11" lengthAdjust="spacing" textLength="129.7764" x="515.9541" y="510.5156">apply idempotent delete</text></g><path d="M97,527.8359 L97,552.8359 L287,552.8359 L287,537.8359 L277,527.8359 L97,527.8359" fill="#FFFDE7" style="stroke:#BDBDBD;stroke-width:0.5;"/><path d="M277,527.8359 L277,537.8359 L287,537.8359 L277,527.8359" fill="#FFFDE7" style="stroke:#BDBDBD;stroke-width:0.5;"/><text fill="#000000" font-family="'Segoe UI'" font-size="13" lengthAdjust="spacing" textLength="169.7236" x="103" y="545.4043">saga ends as compensated</text><?plantuml-src XPHHRzem4CVVyobEz1c9gb3A7Yg5rDccJXjInLjVZ7q12yVER8Ug-_Gx6veIcgsA8aM-t_tzlpixVgzCmnslOSF5VkjiQsHXjNKG73UUGcX2vZlAxxYqByfieUBQurb4OiLR7KfhmazU8uoUS6iHrjz7Pr3kd7qvwb_DfhTidby6O_u9k9bFvzDo27XIVn2khyzzuUyMZS0LTq49rN0JbjP9T2Uj-TrYiYW-IRZem5MPnsSWwOUgw3NOss8vMR9YDa3d8bZNGpzKraS_zM5im8zKMJwm-INLS_WGdu5jlv9EqqCNatoQit-Xtv0J-hzHzPKlhRA2bULrbl5OBeoOaT1wT2FW7jRqaJNlKu5HmMjAvSycCh_Cnd8dwGGckY0nghgyxQT4SaplGGaygb9_2ZPbHPzhh0kLrShsu1M9tfKpjiYeY9QEyYElzhI_i7M3nlEWh7asmJPA-9JmMAJstx19baN_CBudPr_0jvjQ1R2TPwYigxCYnjSKRnp66mR2cagvEWc3LcQVhM4ScQX5CaWDwZ5OSwMxhQAKq4hiXuMENeHr3ZKFc5IB8uYI7U85Zrq1kWfSQzGW72Q53A2pcjOmZOcMZ_QYR5mu1INGC2ioXZB3-7CufQ_Uqxj-KspLQNIhGq96qZdH0POsx613FoMnGq-T5G8f3EcKWpsGYzHnlkKGvwGnl67ULwtMhyaJC1Lsn1w5qYR-l4pN6ZWVC-ouaVgjvliuQVBRRhJoEsWmrdvEO-ecH6nygfmtZNu59R5ko2aTEedHsx1pgjR70zM9dZhm5m00?></g></svg>