<?plantuml 1.2026.2?><svg xmlns="http://www.w3.org/2000/svg" xmlns:xlink="http://www.w3.org/1999/xlink" contentStyleType="text/css" data-diagram-type="SEQUENCE" height="636px" preserveAspectRatio="none" style="width:928px;height:636px;" version="1.1" viewBox="0 0 928 636" width="928px" zoomAndPan="magnify"><defs/><g><rect fill="none" height="71.2207" style="stroke:#90A4AE;stroke-width:1.5;" width="399.2178" x="171.6064" y="127.9316"/><g class="participant-lifeline" data-entity-uid="part1" data-qualified-name="C" id="part1-lifeline"><g><title>Camunda</title><rect fill="#000000" fill-opacity="0.00000" height="457.9922" width="8" x="45.2524" y="83.9766"/><line style="stroke:#B0BEC5;stroke-width:0.5;stroke-dasharray:5,5;" x1="49" x2="49" y1="83.9766" y2="541.9688"/></g></g><g class="participant-lifeline" data-entity-uid="part2" data-qualified-name="T" id="part2-lifeline"><g><title>transaction-service</title><rect fill="#000000" fill-opacity="0.00000" height="457.9922" width="8" x="250.1187" y="83.9766"/><line style="stroke:#B0BEC5;stroke-width:0.5;stroke-dasharray:5,5;" x1="253.6064" x2="253.6064" y1="83.9766" y2="541.9688"/></g></g><g class="participant-lifeline" data-entity-uid="part3" data-qualified-name="DB" id="part3-lifeline"><g><title>transaction DB</title><rect fill="#000000" fill-opacity="0.00000" height="457.9922" width="8" x="493.1143" y="83.9766"/><line style="stroke:#B0BEC5;stroke-width:0.5;stroke-dasharray:5,5;" x1="496.4043" x2="496.4043" y1="83.9766" y2="541.9688"/></g></g><g class="participant-lifeline" data-entity-uid="part4" data-qualified-name="K" id="part4-lifeline"><g><title>Kafka</title><rect fill="#000000" fill-opacity="0.00000" height="457.9922" width="8" x="669.3555" y="83.9766"/><line style="stroke:#B0BEC5;stroke-width:0.5;stroke-dasharray:5,5;" x1="672.8242" x2="672.8242" y1="83.9766" y2="541.9688"/></g></g><g class="participant-lifeline" data-entity-uid="part5" data-qualified-name="S" id="part5-lifeline"><g><title>OutboxScheduler</title><rect fill="#000000" fill-opacity="0.00000" height="457.9922" width="8" x="847.4229" y="83.9766"/><line style="stroke:#B0BEC5;stroke-width:0.5;stroke-dasharray:5,5;" x1="850.8867" x2="850.8867" y1="83.9766" y2="541.9688"/></g></g><g class="participant participant-head" data-entity-uid="part1" data-qualified-name="C" id="part1-head"><rect fill="#EDE7F6" height="46.9766" rx="2.5" ry="2.5" style="stroke:#78909C;stroke-width:0.5;" width="88.5049" x="5" y="36"/><text fill="#000000" font-family="'Segoe UI'" font-size="14" lengthAdjust="spacing" textLength="64.4082" x="17.0483" y="56.5352">Camunda</text><text fill="#000000" font-family="'Segoe UI'" font-size="14" lengthAdjust="spacing" textLength="74.5049" x="12" y="73.0234">placeOrder</text></g><g class="participant participant-tail" data-entity-uid="part1" data-qualified-name="C" id="part1-tail"><rect fill="#EDE7F6" height="46.9766" rx="2.5" ry="2.5" style="stroke:#78909C;stroke-width:0.5;" width="88.5049" x="5" y="540.9688"/><text fill="#000000" font-family="'Segoe UI'" font-size="14" lengthAdjust="spacing" textLength="64.4082" x="17.0483" y="561.5039">Camunda</text><text fill="#000000" font-family="'Segoe UI'" font-size="14" lengthAdjust="spacing" textLength="74.5049" x="12" y="577.9922">placeOrder</text></g><g class="participant participant-head" data-entity-uid="part2" data-qualified-name="T" id="part2-head"><rect fill="#E3F2FD" height="30.4883" rx="2.5" ry="2.5" style="stroke:#78909C;stroke-width:0.5;" width="145.0244" x="181.6064" y="52.4883"/><text fill="#000000" font-family="'Segoe UI'" font-size="14" lengthAdjust="spacing" textLength="131.0244" x="188.6064" y="73.0234">transaction-service</text></g><g class="participant participant-tail" data-entity-uid="part2" data-qualified-name="T" id="part2-tail"><rect fill="#E3F2FD" height="30.4883" rx="2.5" ry="2.5" style="stroke:#78909C;stroke-width:0.5;" width="145.0244" x="181.6064" y="540.9688"/><text fill="#000000" font-family="'Segoe UI'" font-size="14" lengthAdjust="spacing" textLength="131.0244" x="188.6064" y="561.5039">transaction-service</text></g><g class="participant participant-head" data-entity-uid="part3" data-qualified-name="DB" id="part3-head"><text fill="#000000" font-family="'Segoe UI'" font-size="14" lengthAdjust="spacing" textLength="98.9639" x="444.6323" y="64.5352">transaction DB</text><text fill="#000000" font-family="'Segoe UI'" font-size="14" lengthAdjust="spacing" textLength="121.4199" x="433.4043" y="81.0234">(orders + outbox)</text><path d="M479.1143,15 C479.1143,5 497.1143,5 497.1143,5 C497.1143,5 515.1143,5 515.1143,15 L515.1143,41 C515.1143,51 497.1143,51 497.1143,51 C497.1143,51 479.1143,51 479.1143,41 L479.1143,15" fill="#E3F2FD" style="stroke:#181818;stroke-width:0.5;"/><path d="M479.1143,15 C479.1143,25 497.1143,25 497.1143,25 C497.1143,25 515.1143,25 515.1143,15" fill="none" style="stroke:#181818;stroke-width:0.5;"/></g><g class="participant participant-tail" data-entity-uid="part3" data-qualified-name="DB" id="part3-tail"><text fill="#000000" font-family="'Segoe UI'" font-size="14" lengthAdjust="spacing" textLength="98.9639" x="444.6323" y="554.5039">transaction DB</text><text fill="#000000" font-family="'Segoe UI'" font-size="14" lengthAdjust="spacing" textLength="121.4199" x="433.4043" y="570.9922">(orders + outbox)</text><path d="M479.1143,583.9453 C479.1143,573.9453 497.1143,573.9453 497.1143,573.9453 C497.1143,573.9453 515.1143,573.9453 515.1143,583.9453 L515.1143,609.9453 C515.1143,619.9453 497.1143,619.9453 497.1143,619.9453 C497.1143,619.9453 479.1143,619.9453 479.1143,609.9453 L479.1143,583.9453" fill="#E3F2FD" style="stroke:#181818;stroke-width:0.5;"/><path d="M479.1143,583.9453 C479.1143,593.9453 497.1143,593.9453 497.1143,593.9453 C497.1143,593.9453 515.1143,593.9453 515.1143,583.9453" fill="none" style="stroke:#181818;stroke-width:0.5;"/></g><g class="participant participant-head" data-entity-uid="part4" data-qualified-name="K" id="part4-head"><path d="M575.8242,41 L770.8867,41 C775.8867,41 775.8867,62.4883 775.8867,62.4883 C775.8867,62.4883 775.8867,83.9766 770.8867,83.9766 L575.8242,83.9766 C570.8242,83.9766 570.8242,62.4883 570.8242,62.4883 C570.8242,62.4883 570.8242,41 575.8242,41" fill="#FFF3E0" style="stroke:#181818;stroke-width:0.5;"/><path d="M770.8867,41 C765.8867,41 765.8867,62.4883 765.8867,62.4883 C765.8867,83.9766 770.8867,83.9766 770.8867,83.9766" fill="none" style="stroke:#181818;stroke-width:0.5;"/><text fill="#000000" font-family="'Segoe UI'" font-size="14" lengthAdjust="spacing" textLength="37.9326" x="649.3892" y="59.5352">Kafka</text><text fill="#000000" font-family="'Segoe UI'" font-size="14" lengthAdjust="spacing" textLength="185.0625" x="575.8242" y="76.0234">transaction.order.approved</text></g><g class="participant participant-tail" data-entity-uid="part4" data-qualified-name="K" id="part4-tail"><path d="M575.8242,540.9688 L770.8867,540.9688 C775.8867,540.9688 775.8867,562.457 775.8867,562.457 C775.8867,562.457 775.8867,583.9453 770.8867,583.9453 L575.8242,583.9453 C570.8242,583.9453 570.8242,562.457 570.8242,562.457 C570.8242,562.457 570.8242,540.9688 575.8242,540.9688" fill="#FFF3E0" style="stroke:#181818;stroke-width:0.5;"/><path d="M770.8867,540.9688 C765.8867,540.9688 765.8867,562.457 765.8867,562.457 C765.8867,583.9453 770.8867,583.9453 770.8867,583.9453" fill="none" style="stroke:#181818;stroke-width:0.5;"/><text fill="#000000" font-family="'Segoe UI'" font-size="14" lengthAdjust="spacing" textLength="37.9326" x="649.3892" y="559.5039">Kafka</text><text fill="#000000" font-family="'Segoe UI'" font-size="14" lengthAdjust="spacing" textLength="185.0625" x="575.8242" y="575.9922">transaction.order.approved</text></g><g class="participant participant-head" data-entity-uid="part5" data-qualified-name="S" id="part5-head"><rect fill="#E3F2FD" height="30.4883" rx="2.5" ry="2.5" style="stroke:#78909C;stroke-width:0.5;" width="131.0723" x="785.8867" y="52.4883"/><text fill="#000000" font-family="'Segoe UI'" font-size="14" lengthAdjust="spacing" textLength="117.0723" x="792.8867" y="73.0234">OutboxScheduler</text></g><g class="participant participant-tail" data-entity-uid="part5" data-qualified-name="S" id="part5-tail"><rect fill="#E3F2FD" height="30.4883" rx="2.5" ry="2.5" style="stroke:#78909C;stroke-width:0.5;" width="131.0723" x="785.8867" y="540.9688"/><text fill="#000000" font-family="'Segoe UI'" font-size="14" lengthAdjust="spacing" textLength="117.0723" x="792.8867" y="561.5039">OutboxScheduler</text></g><g class="message" data-entity-1="part1" data-entity-2="part2" id="msg1"><polygon fill="#546E7A" points="242.1187,108.9316,252.1187,112.9316,242.1187,116.9316,246.1187,112.9316" style="stroke:#546E7A;stroke-width:1;"/><line style="stroke:#546E7A;stroke-width:1;" x1="49.2524" x2="248.1187" y1="112.9316" y2="112.9316"/><text fill="#37474F" font-family="'Segoe UI'" font-size="11" lengthAdjust="spacing" textLength="132.9614" x="56.2524" y="108.6113">run approveOrderWorker</text></g><path d="M171.6064,127.9316 L372.7144,127.9316 L372.7144,135.2422 L362.7144,145.2422 L171.6064,145.2422 L171.6064,127.9316" fill="#ECEFF1" style="stroke:#90A4AE;stroke-width:1.5;"/><rect fill="none" height="71.2207" style="stroke:#90A4AE;stroke-width:1.5;" width="399.2178" x="171.6064" y="127.9316"/><text fill="#37474F" font-family="'Segoe UI'" font-size="13" font-weight="bold" lengthAdjust="spacing" textLength="156.1079" x="186.6064" y="141.5">Single local transaction</text><g class="message" data-entity-1="part2" data-entity-2="part3" id="msg2"><polygon fill="#546E7A" points="485.1143,160.1973,495.1143,164.1973,485.1143,168.1973,489.1143,164.1973" style="stroke:#546E7A;stroke-width:1;"/><line style="stroke:#546E7A;stroke-width:1;" x1="254.1187" x2="491.1143" y1="164.1973" y2="164.1973"/><text fill="#37474F" font-family="'Segoe UI'" font-size="11" lengthAdjust="spacing" textLength="205.2349" x="261.1187" y="159.877">UPDATE order SET status = APPROVED</text></g><g class="message" data-entity-1="part2" data-entity-2="part3" id="msg3"><polygon fill="#546E7A" points="485.1143,187.1523,495.1143,191.1523,485.1143,195.1523,489.1143,191.1523" style="stroke:#546E7A;stroke-width:1;"/><line style="stroke:#546E7A;stroke-width:1;" x1="254.1187" x2="491.1143" y1="191.1523" y2="191.1523"/><text fill="#37474F" font-family="'Segoe UI'" font-size="11" lengthAdjust="spacing" textLength="212.4858" x="261.1187" y="186.832">INSERT outbox row (publishedAt = null)</text></g><g class="message" data-entity-1="part2" data-entity-2="part1" id="msg4"><polygon fill="#546E7A" points="60.2524,221.1074,50.2524,225.1074,60.2524,229.1074,56.2524,225.1074" style="stroke:#546E7A;stroke-width:1;"/><line style="stroke:#546E7A;stroke-width:1;stroke-dasharray:2,2;" x1="54.2524" x2="253.1187" y1="225.1074" y2="225.1074"/><text fill="#37474F" font-family="'Segoe UI'" font-size="11" lengthAdjust="spacing" textLength="76.5649" x="66.2524" y="220.7871">job completed</text></g><g class="message" data-entity-1="part1" data-entity-2="part2" id="msg5"><polygon fill="#546E7A" points="242.1187,248.0625,252.1187,252.0625,242.1187,256.0625,246.1187,252.0625" style="stroke:#546E7A;stroke-width:1;"/><line style="stroke:#546E7A;stroke-width:1;" x1="49.2524" x2="248.1187" y1="252.0625" y2="252.0625"/><text fill="#37474F" font-family="'Segoe UI'" font-size="11" lengthAdjust="spacing" textLength="180.8662" x="56.2524" y="247.7422">run publishOrderApprovedWorker</text></g><g class="message" data-entity-1="part2" data-entity-2="part3" id="msg6"><polygon fill="#546E7A" points="485.1143,275.0176,495.1143,279.0176,485.1143,283.0176,489.1143,279.0176" style="stroke:#546E7A;stroke-width:1;"/><line style="stroke:#546E7A;stroke-width:1;" x1="254.1187" x2="491.1143" y1="279.0176" y2="279.0176"/><text fill="#37474F" font-family="'Segoe UI'" font-size="11" lengthAdjust="spacing" textLength="158.0981" x="261.1187" y="274.6973">read unpublished outbox row</text></g><g class="message" data-entity-1="part2" data-entity-2="part4" id="msg7"><polygon fill="#546E7A" points="661.3555,301.9727,671.3555,305.9727,661.3555,309.9727,665.3555,305.9727" style="stroke:#546E7A;stroke-width:1;"/><line style="stroke:#546E7A;stroke-width:1;" x1="254.1187" x2="667.3555" y1="305.9727" y2="305.9727"/><text fill="#37474F" font-family="'Segoe UI'" font-size="11" lengthAdjust="spacing" textLength="188.3535" x="261.1187" y="301.6523">publish transaction.order.approved</text></g><g class="message" data-entity-1="part2" data-entity-2="part3" id="msg8"><polygon fill="#546E7A" points="485.1143,328.9277,495.1143,332.9277,485.1143,336.9277,489.1143,332.9277" style="stroke:#546E7A;stroke-width:1;"/><line style="stroke:#546E7A;stroke-width:1;" x1="254.1187" x2="491.1143" y1="332.9277" y2="332.9277"/><text fill="#37474F" font-family="'Segoe UI'" font-size="11" lengthAdjust="spacing" textLength="218.9956" x="261.1187" y="328.6074">UPDATE outbox SET publishedAt = now()</text></g><g class="message" data-entity-1="part2" data-entity-2="part1" id="msg9"><polygon fill="#546E7A" points="60.2524,355.8828,50.2524,359.8828,60.2524,363.8828,56.2524,359.8828" style="stroke:#546E7A;stroke-width:1;"/><line style="stroke:#546E7A;stroke-width:1;stroke-dasharray:2,2;" x1="54.2524" x2="253.1187" y1="359.8828" y2="359.8828"/><text fill="#37474F" font-family="'Segoe UI'" font-size="11" lengthAdjust="spacing" textLength="76.5649" x="66.2524" y="355.5625">job completed</text></g><rect fill="#ECEFF1" height="3" style="stroke:#ECEFF1;stroke-width:1;" width="921.959" x="0" y="388.5381"/><line style="stroke:#000000;stroke-width:1;" x1="0" x2="921.959" y1="388.5381" y2="388.5381"/><line style="stroke:#000000;stroke-width:1;" x1="0" x2="921.959" y1="391.5381" y2="391.5381"/><rect fill="#ECEFF1" height="23.3105" style="stroke:#000000;stroke-width:2;" width="193.7339" x="364.1125" y="377.8828"/><text fill="#000000" font-family="'Segoe UI'" font-size="13" font-weight="bold" lengthAdjust="spacing" textLength="175.4492" x="370.1125" y="394.4512">Recovery path (safety net)</text><g class="message" data-entity-1="part5" data-entity-2="part3" id="msg10"><polygon fill="#546E7A" points="508.1143,439.1035,498.1143,443.1035,508.1143,447.1035,504.1143,443.1035" style="stroke:#546E7A;stroke-width:1;"/><line style="stroke:#546E7A;stroke-width:1;" x1="502.1143" x2="850.4229" y1="443.1035" y2="443.1035"/><text fill="#37474F" font-family="'Segoe UI'" font-size="11" lengthAdjust="spacing" textLength="145.4492" x="514.1143" y="425.8281">scan rows older than 5 min</text><text fill="#37474F" font-family="'Segoe UI'" font-size="11" lengthAdjust="spacing" textLength="126.0166" x="514.1143" y="438.7832">with publishedAt = null</text></g><g class="message" data-entity-1="part3" data-entity-2="part5" id="msg11"><polygon fill="#546E7A" points="839.4229,466.0586,849.4229,470.0586,839.4229,474.0586,843.4229,470.0586" style="stroke:#546E7A;stroke-width:1;"/><line style="stroke:#546E7A;stroke-width:1;stroke-dasharray:2,2;" x1="497.1143" x2="845.4229" y1="470.0586" y2="470.0586"/><text fill="#37474F" font-family="'Segoe UI'" font-size="11" lengthAdjust="spacing" textLength="121.3867" x="504.1143" y="465.7383">orphaned outbox rows</text></g><g class="message" data-entity-1="part5" data-entity-2="part4" id="msg12"><polygon fill="#546E7A" points="684.3555,493.0137,674.3555,497.0137,684.3555,501.0137,680.3555,497.0137" style="stroke:#546E7A;stroke-width:1;"/><line style="stroke:#546E7A;stroke-width:1;" x1="678.3555" x2="850.4229" y1="497.0137" y2="497.0137"/><text fill="#37474F" font-family="'Segoe UI'" font-size="11" lengthAdjust="spacing" textLength="50.0962" x="690.3555" y="492.6934">republish</text></g><g class="message" data-entity-1="part5" data-entity-2="part3" id="msg13"><polygon fill="#546E7A" points="508.1143,519.9688,498.1143,523.9688,508.1143,527.9688,504.1143,523.9688" style="stroke:#546E7A;stroke-width:1;"/><line style="stroke:#546E7A;stroke-width:1;" x1="502.1143" x2="850.4229" y1="523.9688" y2="523.9688"/><text fill="#37474F" font-family="'Segoe UI'" font-size="11" lengthAdjust="spacing" textLength="83.2734" x="514.1143" y="519.6484">mark published</text></g><?plantuml-src XPDFRzf04CNl_XGZSW5LYKX3GXE9IiP_seegGJ5fBxaCzX2sBBlkxZeq_VGT6ulO11fP7D2-ttjlPcsx4Yf7WskOOxfwChfGMQ2bDk0CAij7f9ndTogxn4nlX7g21KfBZPEC5bX85slbRd5Dq4deIHCyVEiqHBunUhFrFxaSN4L3V_-mv6l1nN0m7CI718duIt1-tkn5lmjIAKtHE96A79KRQvEHgRs6dwxxry4xmDu6JcA_V0v0tyM2VufQ4UF-E0ek3wX3T3X7I-_xA-qEgE8uZ8RxgbPoM3u7ah-mJzwINlVzWHyTatubPEd_hg3jl5yr2g8uFdGjeNWMx7mCyFBNMu1EW6jMuAFA9QPqLxRl05e8MC-RYA_Qykf5nTG9hKujcMUHKYMViVmY_XY7NbPVG4iBuVXHTQlTMFW0kd1p_QTNaU5uXtBzWha9BbPSg86VLUGPvhdHpvHLtAIwh8ketovuLradwPAoGjQp9Bi4Bu3Jprps1aoXeFQhXlwfpOgCLouiXuI_EKaWTOeI6ZqyO9ODkFCDF4n3VnP1LGsIQ0RMeIiiZC2VJk_lVaHXI_xjDedkP_NemDyMTFDYBeNbfhvZIXLIzZnIcSSGKm53l_GSKhtE9JdAzjhNTDNUhpTJJ_6QQlWbWqBjaXhvMzM4HVKf7D-uztRihKyvzzuOUjFj7HzXD89xIjdJl42ERWbTYmjoBw38zM0qyhna5sLJL6LJ2rgMItPB_dy9Qw4UrKOm-tQ17eDbSiAuDZa3hPdjrdrIRQQc6u5hDAjNK-yV?></g></svg>