<?plantuml 1.2026.2?><svg xmlns="http://www.w3.org/2000/svg" xmlns:xlink="http://www.w3.org/1999/xlink" contentStyleType="text/css" data-diagram-type="SEQUENCE" height="630px" preserveAspectRatio="none" style="width:859px;height:630px;" version="1.1" viewBox="0 0 859 630" width="859px" zoomAndPan="magnify"><defs/><g><rect fill="none" height="246.9063" style="stroke:#90A4AE;stroke-width:1.5;" width="842.7441" x="10" y="285.1738"/><g class="participant-lifeline" data-entity-uid="part1" data-qualified-name="User" id="part1-lifeline"><g><title>End user</title><rect fill="#000000" fill-opacity="0.00000" height="467.5918" width="8" x="48.4355" y="81.4883"/><line style="stroke:#B0BEC5;stroke-width:0.5;stroke-dasharray:5,5;" x1="52" x2="52" y1="81.4883" y2="549.0801"/></g></g><g class="participant-lifeline" data-entity-uid="part2" data-qualified-name="C" id="part2-lifeline"><g><title>Camunda</title><rect fill="#000000" fill-opacity="0.00000" height="467.5918" width="8" x="186.0557" y="81.4883"/><line style="stroke:#B0BEC5;stroke-width:0.5;stroke-dasharray:5,5;" x1="189.8032" x2="189.8032" y1="81.4883" y2="549.0801"/></g></g><g class="participant-lifeline" data-entity-uid="part3" data-qualified-name="T" id="part3-lifeline"><g><title>transaction-service</title><rect fill="#000000" fill-opacity="0.00000" height="467.5918" width="8" x="381.5117" y="81.4883"/><line style="stroke:#B0BEC5;stroke-width:0.5;stroke-dasharray:5,5;" x1="384.9995" x2="384.9995" y1="81.4883" y2="549.0801"/></g></g><g class="participant-lifeline" data-entity-uid="part4" data-qualified-name="K" id="part4-lifeline"><g><title>Kafka</title><rect fill="#000000" fill-opacity="0.00000" height="467.5918" width="8" x="593.8652" y="81.4883"/><line style="stroke:#B0BEC5;stroke-width:0.5;stroke-dasharray:5,5;" x1="596.8989" x2="596.8989" y1="81.4883" y2="549.0801"/></g></g><g class="participant-lifeline" data-entity-uid="part5" data-qualified-name="P" id="part5-lifeline"><g><title>portfolio-service</title><rect fill="#000000" fill-opacity="0.00000" height="467.5918" width="8" x="751.6108" y="81.4883"/><line style="stroke:#B0BEC5;stroke-width:0.5;stroke-dasharray:5,5;" x1="754.688" x2="754.688" y1="81.4883" y2="549.0801"/></g></g><g class="participant participant-head" data-entity-uid="part1" data-qualified-name="User" id="part1-head"><text fill="#000000" font-family="'Segoe UI'" font-size="14" lengthAdjust="spacing" textLength="58.8711" x="20" y="78.5352">End user</text><ellipse cx="52.4355" cy="13.5" fill="#FAFAFA" rx="8" ry="8" style="stroke:#37474F;stroke-width:0.5;"/><path d="M52.4355,21.5 L52.4355,48.5 M39.4355,29.5 L65.4355,29.5 M52.4355,48.5 L39.4355,63.5 M52.4355,48.5 L65.4355,63.5" fill="none" style="stroke:#37474F;stroke-width:0.5;"/></g><g class="participant participant-tail" data-entity-uid="part1" data-qualified-name="User" id="part1-tail"><text fill="#000000" font-family="'Segoe UI'" font-size="14" lengthAdjust="spacing" textLength="58.8711" x="20" y="561.6152">End user</text><ellipse cx="52.4355" cy="573.0684" fill="#FAFAFA" rx="8" ry="8" style="stroke:#37474F;stroke-width:0.5;"/><path d="M52.4355,581.0684 L52.4355,608.0684 M39.4355,589.0684 L65.4355,589.0684 M52.4355,608.0684 L39.4355,623.0684 M52.4355,608.0684 L65.4355,623.0684" fill="none" style="stroke:#37474F;stroke-width:0.5;"/></g><g class="participant participant-head" data-entity-uid="part2" data-qualified-name="C" id="part2-head"><rect fill="#EDE7F6" height="46.9766" rx="2.5" ry="2.5" style="stroke:#78909C;stroke-width:0.5;" width="88.5049" x="145.8032" y="33.5117"/><text fill="#000000" font-family="'Segoe UI'" font-size="14" lengthAdjust="spacing" textLength="64.4082" x="157.8516" y="54.0469">Camunda</text><text fill="#000000" font-family="'Segoe UI'" font-size="14" lengthAdjust="spacing" textLength="74.5049" x="152.8032" y="70.5352">placeOrder</text></g><g class="participant participant-tail" data-entity-uid="part2" data-qualified-name="C" id="part2-tail"><rect fill="#EDE7F6" height="46.9766" rx="2.5" ry="2.5" style="stroke:#78909C;stroke-width:0.5;" width="88.5049" x="145.8032" y="548.0801"/><text fill="#000000" font-family="'Segoe UI'" font-size="14" lengthAdjust="spacing" textLength="64.4082" x="157.8516" y="568.6152">Camunda</text><text fill="#000000" font-family="'Segoe UI'" font-size="14" lengthAdjust="spacing" textLength="74.5049" x="152.8032" y="585.1035">placeOrder</text></g><g class="participant participant-head" data-entity-uid="part3" data-qualified-name="T" id="part3-head"><rect fill="#E3F2FD" height="30.4883" rx="2.5" ry="2.5" style="stroke:#78909C;stroke-width:0.5;" width="145.0244" x="312.9995" y="50"/><text fill="#000000" font-family="'Segoe UI'" font-size="14" lengthAdjust="spacing" textLength="131.0244" x="319.9995" y="70.5352">transaction-service</text></g><g class="participant participant-tail" data-entity-uid="part3" data-qualified-name="T" id="part3-tail"><rect fill="#E3F2FD" height="30.4883" rx="2.5" ry="2.5" style="stroke:#78909C;stroke-width:0.5;" width="145.0244" x="312.9995" y="548.0801"/><text fill="#000000" font-family="'Segoe UI'" font-size="14" lengthAdjust="spacing" textLength="131.0244" x="319.9995" y="568.6152">transaction-service</text></g><g class="participant participant-head" data-entity-uid="part4" data-qualified-name="K" id="part4-head"><path d="M573.8989,55 L621.8315,55 C626.8315,55 626.8315,68.2441 626.8315,68.2441 C626.8315,68.2441 626.8315,81.4883 621.8315,81.4883 L573.8989,81.4883 C568.8989,81.4883 568.8989,68.2441 568.8989,68.2441 C568.8989,68.2441 568.8989,55 573.8989,55" fill="#FFF3E0" style="stroke:#181818;stroke-width:0.5;"/><path d="M621.8315,55 C616.8315,55 616.8315,68.2441 616.8315,68.2441 C616.8315,81.4883 621.8315,81.4883 621.8315,81.4883" fill="none" style="stroke:#181818;stroke-width:0.5;"/><text fill="#000000" font-family="'Segoe UI'" font-size="14" lengthAdjust="spacing" textLength="37.9326" x="573.8989" y="73.5352">Kafka</text></g><g class="participant participant-tail" data-entity-uid="part4" data-qualified-name="K" id="part4-tail"><path d="M573.8989,548.0801 L621.8315,548.0801 C626.8315,548.0801 626.8315,561.3242 626.8315,561.3242 C626.8315,561.3242 626.8315,574.5684 621.8315,574.5684 L573.8989,574.5684 C568.8989,574.5684 568.8989,561.3242 568.8989,561.3242 C568.8989,561.3242 568.8989,548.0801 573.8989,548.0801" fill="#FFF3E0" style="stroke:#181818;stroke-width:0.5;"/><path d="M621.8315,548.0801 C616.8315,548.0801 616.8315,561.3242 616.8315,561.3242 C616.8315,574.5684 621.8315,574.5684 621.8315,574.5684" fill="none" style="stroke:#181818;stroke-width:0.5;"/><text fill="#000000" font-family="'Segoe UI'" font-size="14" lengthAdjust="spacing" textLength="37.9326" x="573.8989" y="566.6152">Kafka</text></g><g class="participant participant-head" data-entity-uid="part5" data-qualified-name="P" id="part5-head"><rect fill="#E8F5E9" height="30.4883" rx="2.5" ry="2.5" style="stroke:#78909C;stroke-width:0.5;" width="127.8457" x="691.688" y="50"/><text fill="#000000" font-family="'Segoe UI'" font-size="14" lengthAdjust="spacing" textLength="113.8457" x="698.688" y="70.5352">portfolio-service</text></g><g class="participant participant-tail" data-entity-uid="part5" data-qualified-name="P" id="part5-tail"><rect fill="#E8F5E9" height="30.4883" rx="2.5" ry="2.5" style="stroke:#78909C;stroke-width:0.5;" width="127.8457" x="691.688" y="548.0801"/><text fill="#000000" font-family="'Segoe UI'" font-size="14" lengthAdjust="spacing" textLength="113.8457" x="698.688" y="568.6152">portfolio-service</text></g><g class="message" data-entity-1="part1" data-entity-2="part2" id="msg1"><polygon fill="#546E7A" points="178.0557,106.4434,188.0557,110.4434,178.0557,114.4434,182.0557,110.4434" style="stroke:#546E7A;stroke-width:1;"/><line style="stroke:#546E7A;stroke-width:1;" x1="52.4355" x2="184.0557" y1="110.4434" y2="110.4434"/><text fill="#37474F" font-family="'Segoe UI'" font-size="11" lengthAdjust="spacing" textLength="98.2642" x="59.4355" y="106.123">submit order form</text></g><g class="message" data-entity-1="part2" data-entity-2="part3" id="msg2"><polygon fill="#546E7A" points="373.5117,133.3984,383.5117,137.3984,373.5117,141.3984,377.5117,137.3984" style="stroke:#546E7A;stroke-width:1;"/><line style="stroke:#546E7A;stroke-width:1;" x1="190.0557" x2="379.5117" y1="137.3984" y2="137.3984"/><text fill="#37474F" font-family="'Segoe UI'" font-size="11" lengthAdjust="spacing" textLength="117.9009" x="197.0557" y="133.0781">run placeOrderWorker</text></g><g class="message" data-entity-1="part3" data-entity-2="part3" id="msg3"><line style="stroke:#546E7A;stroke-width:1;" x1="385.5117" x2="427.5117" y1="177.3086" y2="177.3086"/><line style="stroke:#546E7A;stroke-width:1;" x1="427.5117" x2="427.5117" y1="177.3086" y2="190.3086"/><line style="stroke:#546E7A;stroke-width:1;" x1="386.5117" x2="427.5117" y1="190.3086" y2="190.3086"/><polygon fill="#546E7A" points="396.5117,186.3086,386.5117,190.3086,396.5117,194.3086,392.5117,190.3086" style="stroke:#546E7A;stroke-width:1;"/><text fill="#37474F" font-family="'Segoe UI'" font-size="11" lengthAdjust="spacing" textLength="110.1289" x="392.5117" y="160.0332">validate user against</text><text fill="#37474F" font-family="'Segoe UI'" font-size="11" lengthAdjust="spacing" textLength="175.8442" x="392.5117" y="172.9883">local confirmed-user read model</text></g><g class="message" data-entity-1="part3" data-entity-2="part3" id="msg4"><line style="stroke:#546E7A;stroke-width:1;" x1="385.5117" x2="427.5117" y1="230.2188" y2="230.2188"/><line style="stroke:#546E7A;stroke-width:1;" x1="427.5117" x2="427.5117" y1="230.2188" y2="243.2188"/><line style="stroke:#546E7A;stroke-width:1;" x1="386.5117" x2="427.5117" y1="243.2188" y2="243.2188"/><polygon fill="#546E7A" points="396.5117,239.2188,386.5117,243.2188,396.5117,247.2188,392.5117,243.2188" style="stroke:#546E7A;stroke-width:1;"/><text fill="#37474F" font-family="'Segoe UI'" font-size="11" lengthAdjust="spacing" textLength="115.5" x="392.5117" y="212.9434">persist pending order</text><text fill="#37474F" font-family="'Segoe UI'" font-size="11" lengthAdjust="spacing" textLength="130.1792" x="392.5117" y="225.8984">and wait for price match</text></g><g class="message" data-entity-1="part4" data-entity-2="part3" id="msg5"><polygon fill="#546E7A" points="396.5117,266.1738,386.5117,270.1738,396.5117,274.1738,392.5117,270.1738" style="stroke:#546E7A;stroke-width:1;"/><line style="stroke:#546E7A;stroke-width:1;stroke-dasharray:2,2;" x1="390.5117" x2="596.8652" y1="270.1738" y2="270.1738"/><text fill="#37474F" font-family="'Segoe UI'" font-size="11" lengthAdjust="spacing" textLength="97.9526" x="402.5117" y="265.8535">deliver price event</text></g><path d="M10,285.1738 L72.1387,285.1738 L72.1387,292.4844 L62.1387,302.4844 L10,302.4844 L10,285.1738" fill="#ECEFF1" style="stroke:#90A4AE;stroke-width:1.5;"/><rect fill="none" height="246.9063" style="stroke:#90A4AE;stroke-width:1.5;" width="842.7441" x="10" y="285.1738"/><text fill="#37474F" font-family="'Segoe UI'" font-size="13" font-weight="bold" lengthAdjust="spacing" textLength="17.1387" x="25" y="298.7422">alt</text><text fill="#000000" font-family="'Segoe UI'" font-size="11" font-weight="bold" lengthAdjust="spacing" textLength="174.6089" x="87.1387" y="297.8086">[Price matches before timeout]</text><g class="message" data-entity-1="part3" data-entity-2="part2" id="msg6"><polygon fill="#546E7A" points="201.0557,317.4395,191.0557,321.4395,201.0557,325.4395,197.0557,321.4395" style="stroke:#546E7A;stroke-width:1;"/><line style="stroke:#546E7A;stroke-width:1;" x1="195.0557" x2="384.5117" y1="321.4395" y2="321.4395"/><text fill="#37474F" font-family="'Segoe UI'" font-size="11" lengthAdjust="spacing" textLength="150.7666" x="207.0557" y="317.1191">correlate priceMatchedEvent</text></g><g class="message" data-entity-1="part2" data-entity-2="part3" id="msg7"><polygon fill="#546E7A" points="373.5117,357.3496,383.5117,361.3496,373.5117,365.3496,377.5117,361.3496" style="stroke:#546E7A;stroke-width:1;"/><line style="stroke:#546E7A;stroke-width:1;" x1="190.0557" x2="379.5117" y1="361.3496" y2="361.3496"/><text fill="#37474F" font-family="'Segoe UI'" font-size="11" lengthAdjust="spacing" textLength="132.9614" x="197.0557" y="344.0742">run approveOrderWorker</text><text fill="#37474F" font-family="'Segoe UI'" font-size="11" lengthAdjust="spacing" textLength="171.4561" x="197.0557" y="357.0293">+ publishOrderApprovedWorker</text></g><g class="message" data-entity-1="part3" data-entity-2="part4" id="msg8"><polygon fill="#546E7A" points="585.8652,384.3047,595.8652,388.3047,585.8652,392.3047,589.8652,388.3047" style="stroke:#546E7A;stroke-width:1;"/><line style="stroke:#546E7A;stroke-width:1;" x1="385.5117" x2="591.8652" y1="388.3047" y2="388.3047"/><text fill="#37474F" font-family="'Segoe UI'" font-size="11" lengthAdjust="spacing" textLength="188.3535" x="392.5117" y="383.9844">publish transaction.order.approved</text></g><g class="message" data-entity-1="part4" data-entity-2="part5" id="msg9"><polygon fill="#546E7A" points="743.6108,411.2598,753.6108,415.2598,743.6108,419.2598,747.6108,415.2598" style="stroke:#546E7A;stroke-width:1;"/><line style="stroke:#546E7A;stroke-width:1;stroke-dasharray:2,2;" x1="597.8652" x2="749.6108" y1="415.2598" y2="415.2598"/><text fill="#37474F" font-family="'Segoe UI'" font-size="11" lengthAdjust="spacing" textLength="133.7456" x="604.8652" y="410.9395">consume approved order</text></g><g class="message" data-entity-1="part5" data-entity-2="part5" id="msg10"><line style="stroke:#546E7A;stroke-width:1;" x1="755.6108" x2="797.6108" y1="442.2148" y2="442.2148"/><line style="stroke:#546E7A;stroke-width:1;" x1="797.6108" x2="797.6108" y1="442.2148" y2="455.2148"/><line style="stroke:#546E7A;stroke-width:1;" x1="756.6108" x2="797.6108" y1="455.2148" y2="455.2148"/><polygon fill="#546E7A" points="766.6108,451.2148,756.6108,455.2148,766.6108,459.2148,762.6108,455.2148" style="stroke:#546E7A;stroke-width:1;"/><text fill="#37474F" font-family="'Segoe UI'" font-size="11" lengthAdjust="spacing" textLength="78.1333" x="762.6108" y="437.8945">upsert holding</text></g><g class="message" data-entity-1="part2" data-entity-2="part1" id="msg11"><polygon fill="#546E7A" points="63.4355,478.1699,53.4355,482.1699,63.4355,486.1699,59.4355,482.1699" style="stroke:#546E7A;stroke-width:1;"/><line style="stroke:#546E7A;stroke-width:1;stroke-dasharray:2,2;" x1="57.4355" x2="189.0557" y1="482.1699" y2="482.1699"/><text fill="#37474F" font-family="'Segoe UI'" font-size="11" lengthAdjust="spacing" textLength="113.6201" x="69.4355" y="477.8496">send execution email</text></g><line style="stroke:#90A4AE;stroke-width:1;stroke-dasharray:2,2;" x1="10" x2="852.7441" y1="491.1699" y2="491.1699"/><text fill="#000000" font-family="'Segoe UI'" font-size="11" font-weight="bold" lengthAdjust="spacing" textLength="149.7998" x="15" y="501.8047">[No match before timeout]</text><g class="message" data-entity-1="part2" data-entity-2="part1" id="msg12"><polygon fill="#546E7A" points="63.4355,520.0801,53.4355,524.0801,63.4355,528.0801,59.4355,524.0801" style="stroke:#546E7A;stroke-width:1;"/><line style="stroke:#546E7A;stroke-width:1;stroke-dasharray:2,2;" x1="57.4355" x2="189.0557" y1="524.0801" y2="524.0801"/><text fill="#37474F" font-family="'Segoe UI'" font-size="11" lengthAdjust="spacing" textLength="107.8945" x="69.4355" y="519.7598">send rejection email</text></g><?plantuml-src XPH1Rzf048Nl-oj6v5WHaOQ4q4Cbnx7RYZP52b4lN0Px35lMk-xkcbJvzHsleM2WZIm4Ohvv--QDRRUMkaAB9ImmMo-jgNKU6sKiU8lQSOcq5-ulvLQOcnUfbr2WSdHGoQd0MldKQF-89K7lYPQ6uFbBxm2Ah3KlhVx5pV0s6KN7nQP_2roFXgDXUWvuagy4LrU7lkXNJJgZALelCrcXzlV6vcItMgExyM0Slz5mbC156ZNNcQQlik2FfiuHzuFx9BuvGqUPDxQ3dapMHT_qeOsdKofD7vBHCTLn-D1SPuxzn3fL1nqFec6K_0lzJCZe_rRLLJwsciH9cbu9WSsuq4jq3hKZsmDqyCm_HBNV2lHYBBaLvxfIcD7tncKWOnRYYTFRBXvkN5QMHlTPQoCp2lYCyUlqVVeWs5hDD-W4YpM6qYIaTvqCkagLiRumIfgEpfHrxjARP2n4unNw7zd91t3refGUGeXG65kAk2dDk6Hh3NllFunTyuYpNNM3IkReAKG0k4IfdPzhPJ9Ka1bTI5jItWzLoy53QN9I-_wAh9FEyxVEcmSpE9Xhv51Va1sn5wWikuSIVROIOWBzRIlho0tjohHfddM1oiDqpvE31R46WPSbcTeBWDbkwCnOIwen7oI-XOOy2K80dG2mggpP74Omr--WgXTAkbNuDsg9V1lGzfX9Cs9BmS5gByEObrlLdEbsh6bmfLtDhw1TiOs4aIbiYRhYD3siZ6eYQwroAUoJLyb90lsch6vE0YfHAa7ykeD7quPo6icfWAMVb1qAw5py0G00?></g></svg>