<?plantuml 1.2026.2?><svg xmlns="http://www.w3.org/2000/svg" xmlns:xlink="http://www.w3.org/1999/xlink" contentStyleType="text/css" data-diagram-type="SEQUENCE" height="447px" preserveAspectRatio="none" style="width:636px;height:447px;" version="1.1" viewBox="0 0 636 447" width="636px" zoomAndPan="magnify"><defs/><g><g class="participant-lifeline" data-entity-uid="part1" data-qualified-name="U" id="part1-lifeline"><g><title>user-service</title><rect fill="#000000" fill-opacity="0.00000" height="268.707" width="8" x="100.1914" y="83.9766"/><line style="stroke:#B0BEC5;stroke-width:0.5;stroke-dasharray:5,5;" x1="104" x2="104" y1="83.9766" y2="352.6836"/></g></g><g class="participant-lifeline" data-entity-uid="part2" data-qualified-name="K" id="part2-lifeline"><g><title>Kafka</title><rect fill="#000000" fill-opacity="0.00000" height="268.707" width="8" x="275.9624" y="83.9766"/><line style="stroke:#B0BEC5;stroke-width:0.5;stroke-dasharray:5,5;" x1="279.4702" x2="279.4702" y1="83.9766" y2="352.6836"/></g></g><g class="participant-lifeline" data-entity-uid="part3" data-qualified-name="T" id="part3-lifeline"><g><title>transaction-service</title><rect fill="#000000" fill-opacity="0.00000" height="268.707" width="8" x="424.9668" y="83.9766"/><line style="stroke:#B0BEC5;stroke-width:0.5;stroke-dasharray:5,5;" x1="428.4546" x2="428.4546" y1="83.9766" y2="352.6836"/></g></g><g class="participant-lifeline" data-entity-uid="part4" data-qualified-name="R" id="part4-lifeline"><g><title>confirmed-user</title><rect fill="#000000" fill-opacity="0.00000" height="268.707" width="8" x="564.6387" y="83.9766"/><line style="stroke:#B0BEC5;stroke-width:0.5;stroke-dasharray:5,5;" x1="568.3799" x2="568.3799" y1="83.9766" y2="352.6836"/></g></g><g class="participant participant-head" data-entity-uid="part1" data-qualified-name="U" id="part1-head"><rect fill="#FCE4EC" height="30.4883" rx="2.5" ry="2.5" style="stroke:#78909C;stroke-width:0.5;" width="98.3828" x="55" y="52.4883"/><text fill="#000000" font-family="'Segoe UI'" font-size="14" lengthAdjust="spacing" textLength="84.3828" x="62" y="73.0234">user-service</text></g><g class="participant participant-tail" data-entity-uid="part1" data-qualified-name="U" id="part1-tail"><rect fill="#FCE4EC" height="30.4883" rx="2.5" ry="2.5" style="stroke:#78909C;stroke-width:0.5;" width="98.3828" x="55" y="351.6836"/><text fill="#000000" font-family="'Segoe UI'" font-size="14" lengthAdjust="spacing" textLength="84.3828" x="62" y="372.2188">user-service</text></g><g class="participant participant-head" data-entity-uid="part2" data-qualified-name="K" id="part2-head"><path d="M218.4702,24.5117 L341.4546,24.5117 C346.4546,24.5117 346.4546,54.2441 346.4546,54.2441 C346.4546,54.2441 346.4546,83.9766 341.4546,83.9766 L218.4702,83.9766 C213.4702,83.9766 213.4702,54.2441 213.4702,54.2441 C213.4702,54.2441 213.4702,24.5117 218.4702,24.5117" fill="#FFF3E0" style="stroke:#181818;stroke-width:0.5;"/><path d="M341.4546,24.5117 C336.4546,24.5117 336.4546,54.2441 336.4546,54.2441 C336.4546,83.9766 341.4546,83.9766 341.4546,83.9766" fill="none" style="stroke:#181818;stroke-width:0.5;"/><text fill="#000000" font-family="'Segoe UI'" font-size="14" lengthAdjust="spacing" textLength="37.9326" x="255.9961" y="43.0469">Kafka</text><text fill="#000000" font-family="'Segoe UI'" font-size="14" lengthAdjust="spacing" textLength="102.8467" x="223.5391" y="59.5352">user.confirmed</text><text fill="#000000" font-family="'Segoe UI'" font-size="14" lengthAdjust="spacing" textLength="112.9844" x="218.4702" y="76.0234">(log-compacted)</text></g><g class="participant participant-tail" data-entity-uid="part2" data-qualified-name="K" id="part2-tail"><path d="M218.4702,351.6836 L341.4546,351.6836 C346.4546,351.6836 346.4546,381.416 346.4546,381.416 C346.4546,381.416 346.4546,411.1484 341.4546,411.1484 L218.4702,411.1484 C213.4702,411.1484 213.4702,381.416 213.4702,381.416 C213.4702,381.416 213.4702,351.6836 218.4702,351.6836" fill="#FFF3E0" style="stroke:#181818;stroke-width:0.5;"/><path d="M341.4546,351.6836 C336.4546,351.6836 336.4546,381.416 336.4546,381.416 C336.4546,411.1484 341.4546,411.1484 341.4546,411.1484" fill="none" style="stroke:#181818;stroke-width:0.5;"/><text fill="#000000" font-family="'Segoe UI'" font-size="14" lengthAdjust="spacing" textLength="37.9326" x="255.9961" y="370.2188">Kafka</text><text fill="#000000" font-family="'Segoe UI'" font-size="14" lengthAdjust="spacing" textLength="102.8467" x="223.5391" y="386.707">user.confirmed</text><text fill="#000000" font-family="'Segoe UI'" font-size="14" lengthAdjust="spacing" textLength="112.9844" x="218.4702" y="403.1953">(log-compacted)</text></g><g class="participant participant-head" data-entity-uid="part3" data-qualified-name="T" id="part3-head"><rect fill="#E3F2FD" height="30.4883" rx="2.5" ry="2.5" style="stroke:#78909C;stroke-width:0.5;" width="145.0244" x="356.4546" y="52.4883"/><text fill="#000000" font-family="'Segoe UI'" font-size="14" lengthAdjust="spacing" textLength="131.0244" x="363.4546" y="73.0234">transaction-service</text></g><g class="participant participant-tail" data-entity-uid="part3" data-qualified-name="T" id="part3-tail"><rect fill="#E3F2FD" height="30.4883" rx="2.5" ry="2.5" style="stroke:#78909C;stroke-width:0.5;" width="145.0244" x="356.4546" y="351.6836"/><text fill="#000000" font-family="'Segoe UI'" font-size="14" lengthAdjust="spacing" textLength="131.0244" x="363.4546" y="372.2188">transaction-service</text></g><g class="participant participant-head" data-entity-uid="part4" data-qualified-name="R" id="part4-head"><text fill="#000000" font-family="'Segoe UI'" font-size="14" lengthAdjust="spacing" textLength="106.5176" x="512.3799" y="64.5352">confirmed-user</text><text fill="#000000" font-family="'Segoe UI'" font-size="14" lengthAdjust="spacing" textLength="68.9404" x="531.1685" y="81.0234">projection</text><path d="M550.6387,15 C550.6387,5 568.6387,5 568.6387,5 C568.6387,5 586.6387,5 586.6387,15 L586.6387,41 C586.6387,51 568.6387,51 568.6387,51 C568.6387,51 550.6387,51 550.6387,41 L550.6387,15" fill="#E3F2FD" style="stroke:#181818;stroke-width:0.5;"/><path d="M550.6387,15 C550.6387,25 568.6387,25 568.6387,25 C568.6387,25 586.6387,25 586.6387,15" fill="none" style="stroke:#181818;stroke-width:0.5;"/></g><g class="participant participant-tail" data-entity-uid="part4" data-qualified-name="R" id="part4-tail"><text fill="#000000" font-family="'Segoe UI'" font-size="14" lengthAdjust="spacing" textLength="106.5176" x="512.3799" y="365.2188">confirmed-user</text><text fill="#000000" font-family="'Segoe UI'" font-size="14" lengthAdjust="spacing" textLength="68.9404" x="531.1685" y="381.707">projection</text><path d="M550.6387,394.6602 C550.6387,384.6602 568.6387,384.6602 568.6387,384.6602 C568.6387,384.6602 586.6387,384.6602 586.6387,394.6602 L586.6387,420.6602 C586.6387,430.6602 568.6387,430.6602 568.6387,430.6602 C568.6387,430.6602 550.6387,430.6602 550.6387,420.6602 L550.6387,394.6602" fill="#E3F2FD" style="stroke:#181818;stroke-width:0.5;"/><path d="M550.6387,394.6602 C550.6387,404.6602 568.6387,404.6602 568.6387,404.6602 C568.6387,404.6602 586.6387,404.6602 586.6387,394.6602" fill="none" style="stroke:#181818;stroke-width:0.5;"/></g><path d="M5,98.9766 L5,123.9766 L204,123.9766 L204,108.9766 L194,98.9766 L5,98.9766" fill="#FFFDE7" style="stroke:#BDBDBD;stroke-width:0.5;"/><path d="M194,98.9766 L194,108.9766 L204,108.9766 L194,98.9766" fill="#FFFDE7" style="stroke:#BDBDBD;stroke-width:0.5;"/><text fill="#000000" font-family="'Segoe UI'" font-size="13" lengthAdjust="spacing" textLength="178.3945" x="11" y="116.5449">user clicks confirmation link</text><g class="message" data-entity-1="part1" data-entity-2="part2" id="msg1"><polygon fill="#546E7A" points="267.9624,144.2422,277.9624,148.2422,267.9624,152.2422,271.9624,148.2422" style="stroke:#546E7A;stroke-width:1;"/><line style="stroke:#546E7A;stroke-width:1;" x1="104.1914" x2="273.9624" y1="148.2422" y2="148.2422"/><text fill="#37474F" font-family="'Segoe UI'" font-size="11" lengthAdjust="spacing" textLength="151.771" x="111.1914" y="143.9219">publish UserConfirmedEvent</text></g><g class="message" data-entity-1="part2" data-entity-2="part3" id="msg2"><polygon fill="#546E7A" points="416.9668,171.1973,426.9668,175.1973,416.9668,179.1973,420.9668,175.1973" style="stroke:#546E7A;stroke-width:1;"/><line style="stroke:#546E7A;stroke-width:1;stroke-dasharray:2,2;" x1="279.9624" x2="422.9668" y1="175.1973" y2="175.1973"/><text fill="#37474F" font-family="'Segoe UI'" font-size="11" lengthAdjust="spacing" textLength="119.7378" x="286.9624" y="170.877">deliver (at-least-once)</text></g><g class="message" data-entity-1="part3" data-entity-2="part4" id="msg3"><polygon fill="#546E7A" points="556.6387,198.1523,566.6387,202.1523,556.6387,206.1523,560.6387,202.1523" style="stroke:#546E7A;stroke-width:1;"/><line style="stroke:#546E7A;stroke-width:1;" x1="428.9668" x2="562.6387" y1="202.1523" y2="202.1523"/><text fill="#37474F" font-family="'Segoe UI'" font-size="11" lengthAdjust="spacing" textLength="86.8882" x="435.9668" y="197.832">upsert by userId</text></g><rect fill="#ECEFF1" height="3" style="stroke:#ECEFF1;stroke-width:1;" width="629.8975" x="0" y="230.8076"/><line style="stroke:#000000;stroke-width:1;" x1="0" x2="629.8975" y1="230.8076" y2="230.8076"/><line style="stroke:#000000;stroke-width:1;" x1="0" x2="629.8975" y1="233.8076" y2="233.8076"/><rect fill="#ECEFF1" height="23.3105" style="stroke:#000000;stroke-width:2;" width="220.667" x="204.6152" y="220.1523"/><text fill="#000000" font-family="'Segoe UI'" font-size="13" font-weight="bold" lengthAdjust="spacing" textLength="202.3823" x="210.6152" y="236.7207">Later, at order placement time</text><g class="message" data-entity-1="part3" data-entity-2="part4" id="msg4"><polygon fill="#546E7A" points="556.6387,268.418,566.6387,272.418,556.6387,276.418,560.6387,272.418" style="stroke:#546E7A;stroke-width:1;"/><line style="stroke:#546E7A;stroke-width:1;" x1="428.9668" x2="562.6387" y1="272.418" y2="272.418"/><text fill="#37474F" font-family="'Segoe UI'" font-size="11" lengthAdjust="spacing" textLength="110.7412" x="435.9668" y="268.0977">lookup userId locally</text></g><g class="message" data-entity-1="part4" data-entity-2="part3" id="msg5"><polygon fill="#546E7A" points="439.9668,295.373,429.9668,299.373,439.9668,303.373,435.9668,299.373" style="stroke:#546E7A;stroke-width:1;"/><line style="stroke:#546E7A;stroke-width:1;stroke-dasharray:2,2;" x1="433.9668" x2="567.6387" y1="299.373" y2="299.373"/><text fill="#37474F" font-family="'Segoe UI'" font-size="11" lengthAdjust="spacing" textLength="115.6719" x="445.9668" y="295.0527">confirmed user exists</text></g><path d="M265,312.373 L265,337.373 L591,337.373 L591,322.373 L581,312.373 L265,312.373" fill="#FFFDE7" style="stroke:#BDBDBD;stroke-width:0.5;"/><path d="M581,312.373 L581,322.373 L591,322.373 L581,312.373" fill="#FFFDE7" style="stroke:#BDBDBD;stroke-width:0.5;"/><text fill="#000000" font-family="'Segoe UI'" font-size="13" lengthAdjust="spacing" textLength="305.2271" x="271" y="329.9414">no synchronous call to user-service (ADR-0017)</text><?plantuml-src XPDVRzem5CNVyockw0j8omGhNKOb9eNysIggQQBmniibkO0NOsUsGyS-_UmqeWIbgo8_HFwTSwxljNN1H8aA3x31hDWfMOayabmgC0g5jbiaZAVFbDvZBf-PsC4MkQQBdPosM76JIc5-u86WzqGxIR1ww5r0eLBo-SN_vcxyEGd2wqsdRu3RO1oCqoxWYVqb68qkwwBV5OcCVg8oB6Cb2ZEJAYVLU0LV9iD9z8xWgWCtQUY-3j4Zszebg1Kn6ywIwAw3Zj7W1ZMzxo-awQ3ID4w2QwgL7Bkl8_cRzIbRw6GOZiFaBVGxeKN_DuAsytMfIPIaQTTOOdParlajWLU-JW5wbIRbstLa6VK0DQni4w9ad4IUTQlirPhZji2rSE37J8ejKmVArwBFvSxFvA74p50-gBNpke6toR2TKTzkYp4fMb5BMzDj-YcDlRoP6lJE2RuBN8jIoLzKIsl9uYpnt6H07adPak_1qP1nbXKQ6WzqAk1C5DuA_A-skdiegmrdUWyhxQRKH2L7z-xcu5jeQQ6SE7E-VJG-9zJ6bxQj0s_fN1OkhBHo0vjJ7VkGUzvq2ezeI7q0D53V0IWvPdImpc2OVQBJgVTgmAKigh9HsxyCEJzvYtC5vowyd8l-C6tqnOaT8oJeayZsIWfPsKDR2p0IBWSA_J1U-CFXA1Xu_m00?></g></svg>